<?xml version="1.0" encoding="UTF-8" standalone="no"?>
<!-- Created with Inkscape (http://www.inkscape.org/) -->

<svg
   version="1.1"
   id="svg2"
   width="386.66699"
   height="386.66666"
   viewBox="0 0 386.66699 386.66665"
   sodipodi:docname="AHEP_LogoFinal.svg"
   inkscape:version="1.2.2 (b0a8486, 2022-12-01)"
   xmlns:inkscape="http://www.inkscape.org/namespaces/inkscape"
   xmlns:sodipodi="http://sodipodi.sourceforge.net/DTD/sodipodi-0.dtd"
   xmlns="http://www.w3.org/2000/svg"
   xmlns:svg="http://www.w3.org/2000/svg">
  <defs
     id="defs6">
    <clipPath
       clipPathUnits="userSpaceOnUse"
       id="clipPath36">
      <path
         d="m 1147.19,467.129 c -9.79,3.019 -19.49,6.16 -29.15,9.461 8.75,-0.86 17.62,-1.551 26.62,-2.078 l 2.53,-7.383 M 1107,584.621 c -0.45,0.109 -0.9,0.219 -1.35,0.34 -25.84,6.508 -51.31,12.629 -70.7,18.48 -22.23,6.7 -55.63,18 -76.981,26.559 -2.719,1.082 -5.668,2.07 -8.789,3.051 -1.305,67.097 -2.606,132.91 -3.91,193.808 l -1.071,50.039 -21.195,-45.339 c -3.277,-7.321 -4.16,-13.84 -6.777,-21.848 -2.196,-6.879 -5.36,-14.871 -11.414,-24.602 -5.141,-0.179 -11.204,-0.277 -17.918,-0.277 -0.02,0 -0.04,0 -0.055,0 -25.266,0 -59.781,1.309 -91.813,3.918 -16.015,1.309 -31.425,2.941 -44.699,4.871 -8.101,1.18 -15.445,2.488 -21.539,3.859 12.754,65.211 25.508,130.418 38.262,195.629 3.996,20.471 8.144,40.961 14.398,59.971 6.254,19.04 14.559,36.51 26.696,51.39 15.671,19.23 36.8,33.06 60.976,43.58 24.149,10.52 51.195,17.62 77.871,23.52 46.371,10.28 92.628,17.64 139.068,23.15 35.39,-32.79 82.81,-52.94 134.88,-52.93 0.01,0 0.01,0 0.02,0 61.57,0 116.55,28.17 152.92,72.14 28.46,2.17 56.82,4.28 84.58,4.28 0.02,0 0.04,0 0.05,0 51.88,-0.01 101.27,-7.3 146.54,-34.33 v 0 c 39.53,-23.49 86.95,-72.14 131.62,-123.93 30.21,-34.95 59.33,-71.302 84.87,-102.618 L 1647.5,894.301 c -9.69,7.777 -18.99,15.519 -27.41,23.25 l -22.03,20.179 2.49,-29.769 c 0.82,-9.762 1.66,-19.691 2.51,-29.75 -31.11,-11.629 -49.48,-43.57 -44.26,-76.051 l -0.08,-0.031 -0.16,0.73 c -6.76,31.832 -34.63,54.762 -67.17,55.262 l -392.27,6.188 -40.41,-40.879 -16.8,0.718 c -0.17,0.012 -0.34,0.012 -0.5,0.012 -3.68,0 -7.14,-1.73 -9.36,-4.691 -2.31,-3.098 -2.95,-7.117 -1.7,-10.778 L 1107,584.621"
         id="path34" />
    </clipPath>
    <linearGradient
       x1="0"
       y1="0"
       x2="1"
       y2="0"
       gradientUnits="userSpaceOnUse"
       gradientTransform="matrix(851.795,714.741,714.741,-851.795,860.555,392.71)"
       spreadMethod="pad"
       id="linearGradient46">
      <stop
         style="stop-opacity:1;stop-color:#d3d2d2"
         offset="0"
         id="stop38" />
      <stop
         style="stop-opacity:1;stop-color:#d3d2d2"
         offset="0.556397"
         id="stop40" />
      <stop
         style="stop-opacity:1;stop-color:#d3d2d2"
         offset="0.67022042"
         id="stop42" />
      <stop
         style="stop-opacity:1;stop-color:#ffffff"
         offset="1"
         id="stop44" />
    </linearGradient>
    <clipPath
       clipPathUnits="userSpaceOnUse"
       id="clipPath66">
      <path
         d="m 1500.15,2183.67 94.97,-264.1 c 39.3,-122.02 47.17,-254.4 8.29,-377.54 -30.85,-97.68 -89.74,-202.55 -182.85,-255.3 -61.57,-34.88 -135.94,-44.83 -206.54,-35.81 -153.83,19.66 -286.543,114.1 -366.536,241.59 -7.011,11.17 -46.132,22.71 -51.441,34.55 -6.934,15.45 -19.121,31.4 -23.617,47.7 -4.289,15.55 25.429,31.42 22.887,47.48 -9.086,57.41 -1.864,117.26 -1.973,173.55 l 16.461,174.72"
         id="path64" />
    </clipPath>
    <linearGradient
       x1="0"
       y1="0"
       x2="1"
       y2="0"
       gradientUnits="userSpaceOnUse"
       gradientTransform="matrix(750.548,201.109,206.224,-731.932,779.906,1548.21)"
       spreadMethod="pad"
       id="linearGradient76">
      <stop
         style="stop-opacity:1;stop-color:#a7a5a6"
         offset="0"
         id="stop68" />
      <stop
         style="stop-opacity:1;stop-color:#a7a5a6"
         offset="0.268796"
         id="stop70" />
      <stop
         style="stop-opacity:1;stop-color:#a7a5a6"
         offset="0.56858067"
         id="stop72" />
      <stop
         style="stop-opacity:1;stop-color:#ffffff"
         offset="1"
         id="stop74" />
    </linearGradient>
    <clipPath
       clipPathUnits="userSpaceOnUse"
       id="clipPath104">
      <path
         d="m 715.227,789.012 c 38.91,-12.59 155.175,-17.653 196.097,-15.301"
         id="path102" />
    </clipPath>
    <linearGradient
       x1="0"
       y1="0"
       x2="1"
       y2="0"
       gradientUnits="userSpaceOnUse"
       gradientTransform="matrix(107.539,90.2358,90.2358,-107.539,759.507,736.24)"
       spreadMethod="pad"
       id="linearGradient114">
      <stop
         style="stop-opacity:1;stop-color:#d3d2d2"
         offset="0"
         id="stop106" />
      <stop
         style="stop-opacity:1;stop-color:#d3d2d2"
         offset="0.556397"
         id="stop108" />
      <stop
         style="stop-opacity:1;stop-color:#d3d2d2"
         offset="0.67022042"
         id="stop110" />
      <stop
         style="stop-opacity:1;stop-color:#ffffff"
         offset="1"
         id="stop112" />
    </linearGradient>
    <clipPath
       clipPathUnits="userSpaceOnUse"
       id="clipPath128">
      <path
         d="m 1558.8,802.16 c -5.22,32.481 13.15,64.422 44.26,76.051 0.01,0 0.01,0.008 0.02,0.008 l 44.42,16.082 174.04,63.031 23.29,8.438 14.16,5.121 23.05,-2.879 17.9,-2.231 26.99,-3.383 L 1558.8,802.16"
         id="path126" />
    </clipPath>
    <linearGradient
       x1="0"
       y1="0"
       x2="1"
       y2="0"
       gradientUnits="userSpaceOnUse"
       gradientTransform="matrix(364.33,210.346,210.346,-364.33,1561.77,794.56)"
       spreadMethod="pad"
       id="linearGradient136">
      <stop
         style="stop-opacity:1;stop-color:#a7a5a6"
         offset="0"
         id="stop130" />
      <stop
         style="stop-opacity:1;stop-color:#ffffff"
         offset="0.63817838"
         id="stop132" />
      <stop
         style="stop-opacity:1;stop-color:#ffffff"
         offset="1"
         id="stop134" />
    </linearGradient>
  </defs>
  <sodipodi:namedview
     id="namedview4"
     pagecolor="#ffffff"
     bordercolor="#000000"
     borderopacity="0.25"
     inkscape:showpageshadow="2"
     inkscape:pageopacity="0.0"
     inkscape:pagecheckerboard="0"
     inkscape:deskcolor="#d1d1d1"
     showgrid="false"
     inkscape:zoom="2.8001769"
     inkscape:cx="201.95153"
     inkscape:cy="164.81102"
     inkscape:window-width="1408"
     inkscape:window-height="761"
     inkscape:window-x="0"
     inkscape:window-y="25"
     inkscape:window-maximized="0"
     inkscape:current-layer="layer1" />
  <g
     id="g8"
     inkscape:groupmode="layer"
     inkscape:label="ink_ext_XXXXXX"
     transform="matrix(1.3333333,0,0,-1.3333333,0,386.66667)">
    <g
       id="g10"
       transform="scale(0.1)"
       inkscape:groupmode="layer"
       style="display:inline">
      <path
         d="m 2503.3236,1435.7858 c 0,582.1704 -470.8835,1054.1093 -1051.7521,1054.1093 -580.8665,0 -1051.75618,-471.9389 -1051.75618,-1054.1093 0,-582.17256 470.88968,-1054.10944 1051.75618,-1054.10944 580.8686,0 1051.7521,471.93688 1051.7521,1054.10944"
         style="display:inline;fill:#db2943;fill-opacity:1;fill-rule:nonzero;stroke:none;stroke-width:1.02408"
         id="path12" />
      <path
         d="m 2148.47,1804.2 c -12.58,112.76 -91.7,199.58 -195.96,242.61 -4.62,1.91 -24.48,9.36 -39.08,14.51 -4.19,1.48 -8.82,-2.53 -6.99,-6.49 23.86,-51.76 23.59,-100.43 -10.08,-147.49 -34.18,-47.77 -66.33,-97.23 -56.37,-158.33 8.39,-51.46 44.5,-96.14 93.73,-116.32 1.24,-0.51 2.5,-0.95 3.75,-1.43 -19.59,16.5 -31.55,40.9 -31.73,66.41 -0.27,35.96 22.64,61.65 46.55,86.2 23.56,24.18 28.06,52.13 18.98,83.9 -0.7,2.43 2.32,4.34 4.6,3.14 7.93,-4.2 18.67,-10.17 21.16,-11.66 56.07,-33.6 93.77,-90.22 90.92,-156.09 -1.04,-23.88 -8.19,-47.25 -24.75,-64.74 -1.03,-1.08 -2.1,-2.12 -3.17,-3.14 25.33,11.54 47.51,29.58 63.47,52.58 23.55,33.91 29.53,75.46 24.97,116.34"
         style="fill:#ffffff;fill-opacity:1;fill-rule:nonzero;stroke:none"
         id="path14" />
      <path
         d="m 2057.26,343.582 h -126.48 l -62.21,974.488 h 250.89 l -62.2,-974.488"
         style="fill:#193048;fill-opacity:1;fill-rule:nonzero;stroke:none"
         id="path16" />
      <path
         d="m 2057.26,343.582 v 8.859 h -118.17 l -61.08,956.769 h 232.01 l -61.6,-965.062 8.84,-0.566 v 8.859 -8.859 l 8.84,-0.562 62.8,983.91 h -269.77 l 63.34,-992.2 h 143.1 l 0.53,8.29 -8.84,0.562"
         style="fill:#db2943;fill-opacity:1;fill-rule:nonzero;stroke:none"
         id="path18" />
      <path
         d="m 2153.41,1377.61 h -318.78 l -66.41,220.08 h 451.6 l -66.41,-220.08"
         style="fill:#193048;fill-opacity:1;fill-rule:nonzero;stroke:none"
         id="path20" />
      <path
         d="M 2148.14,1251.66 H 1839.9 l 21.09,115.34 h 266.05 l 21.1,-115.34"
         style="fill:#193048;fill-opacity:1;fill-rule:nonzero;stroke:none"
         id="path22" />
      <path
         d="m 2148.14,1251.66 v 8.86 h -297.62 l 17.85,97.63 h 251.29 l 19.76,-108.08 8.72,1.59 v 8.86 -8.86 l 8.71,1.59 -22.42,122.61 H 1853.6 l -24.33,-133.06 h 329.49 l -1.91,10.45 -8.71,-1.59"
         style="fill:#db2943;fill-opacity:1;fill-rule:nonzero;stroke:none"
         id="path24" />
      <path
         d="m 1152.01,1137.07 c -2.04,74.72 -14.48,149.16 -36.87,220.65 l 152.1,47.42 c 16.17,-84.61 23.65,-170.8 22.29,-256.85"
         style="fill:#918f90;fill-opacity:1;fill-rule:nonzero;stroke:none"
         id="path26" />
      <path
         d="m 1163.69,1137.38 c -2.07,75.81 -14.68,151.31 -37.4,223.83 l -11.15,-3.49 3.48,-11.16 152.1,47.42 -3.48,11.16 -11.48,-2.2 c 14.79,-77.38 22.24,-156.11 22.24,-234.83 0,-6.55 -0.05,-13.1 -0.15,-19.64 l 23.37,-0.37 c 0.1,6.67 0.15,13.34 0.15,20.01 0,80.19 -7.59,160.38 -22.65,239.22 l -2.46,12.86 -175.77,-54.8 3.5,-11.16 c 22.07,-70.46 34.33,-143.85 36.34,-217.48 l 23.36,0.63"
         style="fill:#193048;fill-opacity:1;fill-rule:nonzero;stroke:none"
         id="path28" />
      <g
         id="g30"
         style="display:inline">
        <g
           id="g32"
           clip-path="url(#clipPath36)">
          <path
             d="m 1147.19,467.129 c -9.79,3.019 -19.49,6.16 -29.15,9.461 8.75,-0.86 17.62,-1.551 26.62,-2.078 l 2.53,-7.383 M 1107,584.621 c -0.45,0.109 -0.9,0.219 -1.35,0.34 -25.84,6.508 -51.31,12.629 -70.7,18.48 -22.23,6.7 -55.63,18 -76.981,26.559 -2.719,1.082 -5.668,2.07 -8.789,3.051 -1.305,67.097 -2.606,132.91 -3.91,193.808 l -1.071,50.039 -21.195,-45.339 c -3.277,-7.321 -4.16,-13.84 -6.777,-21.848 -2.196,-6.879 -5.36,-14.871 -11.414,-24.602 -5.141,-0.179 -11.204,-0.277 -17.918,-0.277 -0.02,0 -0.04,0 -0.055,0 -25.266,0 -59.781,1.309 -91.813,3.918 -16.015,1.309 -31.425,2.941 -44.699,4.871 -8.101,1.18 -15.445,2.488 -21.539,3.859 12.754,65.211 25.508,130.418 38.262,195.629 3.996,20.471 8.144,40.961 14.398,59.971 6.254,19.04 14.559,36.51 26.696,51.39 15.671,19.23 36.8,33.06 60.976,43.58 24.149,10.52 51.195,17.62 77.871,23.52 46.371,10.28 92.628,17.64 139.068,23.15 35.39,-32.79 82.81,-52.94 134.88,-52.93 0.01,0 0.01,0 0.02,0 61.57,0 116.55,28.17 152.92,72.14 28.46,2.17 56.82,4.28 84.58,4.28 0.02,0 0.04,0 0.05,0 51.88,-0.01 101.27,-7.3 146.54,-34.33 v 0 c 39.53,-23.49 86.95,-72.14 131.62,-123.93 30.21,-34.95 59.33,-71.302 84.87,-102.618 L 1647.5,894.301 c -9.69,7.777 -18.99,15.519 -27.41,23.25 l -22.03,20.179 2.49,-29.769 c 0.82,-9.762 1.66,-19.691 2.51,-29.75 -31.11,-11.629 -49.48,-43.57 -44.26,-76.051 l -0.08,-0.031 -0.16,0.73 c -6.76,31.832 -34.63,54.762 -67.17,55.262 l -392.27,6.188 -40.41,-40.879 -16.8,0.718 c -0.17,0.012 -0.34,0.012 -0.5,0.012 -3.68,0 -7.14,-1.73 -9.36,-4.691 -2.31,-3.098 -2.95,-7.117 -1.7,-10.778 L 1107,584.621"
             style="fill:url(#linearGradient46);fill-opacity:1;fill-rule:nonzero;stroke:none"
             id="path48" />
        </g>
      </g>
      <path
         d="m 1611.05,1193.91 5.99,10.03 c -50.29,30.04 -104.61,37.65 -158.53,37.64 -30.66,0 -61.32,-2.44 -91.45,-4.74 l -5.13,-0.39 -3.18,-4.04 c -32.13,-40.92 -81.8,-67.25 -137.81,-67.25 -47.78,0.01 -90.95,19.14 -122.61,50.15 l -3.98,3.9 -5.54,-0.63 c -48.89,-5.65 -97.755,-13.31 -146.876,-24.19 -27.258,-6.05 -55.688,-13.41 -82.137,-24.91 -26.418,-11.5 -51.008,-27.25 -69.766,-50.24 -14.515,-17.81 -23.953,-38.07 -30.785,-58.86 -6.828,-20.81 -11.105,-42.23 -15.133,-62.79 C 730.66,928.809 717.211,860.031 703.758,791.25 l -1.988,-10.168 9.859,-3.191 c 9.332,-3 21.344,-5.34 35.332,-7.391 41.82,-6.078 100.809,-9.02 139.879,-9.039 9.801,0 18.336,0.187 25.152,0.578 l 5.738,0.332 3.243,4.738 c 9.523,13.911 14.511,25.973 17.531,35.532 2.945,9.519 4.359,16.531 5.668,19.019 l -10.586,4.949 -11.68,-0.25 C 925.449,660.66 928.992,458.52 932.539,292.75 l 0.254,-11.82 11.816,0.39 c 55.721,1.84 111.891,2.481 168.311,2.481 127.57,0 256.43,-3.27 384.4,-3.27 56.6,0 113.03,0.641 169.1,2.489 l 12.29,0.402 -1.03,12.25 c -15.53,185.418 -38.33,428.988 -53.84,614.238 l -11.64,-0.98 -7.9,-8.621 c 29.66,-27.11 67.05,-52.7 94.89,-78.258 l 5.41,-4.961 6.82,2.73 c 29.28,11.711 59.95,24.231 88.25,39.551 28.28,15.348 54.31,33.508 73.92,57.008 l 6.34,7.609 -6.47,7.5 c -31.21,36.16 -73.8,91.322 -119.11,143.742 -45.43,52.47 -93.24,102.27 -137.31,128.71 l -5.99,-10.03 -6,-10.03 c 39.53,-23.49 86.95,-72.14 131.62,-123.93 44.8,-51.82 87.19,-106.731 119.09,-143.72 l 8.85,7.629 -8.98,7.481 c -16.79,-20.18 -40.32,-36.93 -67.09,-51.418 -26.76,-14.5 -56.65,-26.75 -85.8,-38.402 l 4.34,-10.848 7.89,8.617 c -29.65,27.109 -67.04,52.699 -94.88,78.262 l -22.03,20.179 2.49,-29.769 c 15.53,-185.422 38.33,-429 53.84,-614.242 l 11.64,0.98 -0.38,11.68 c -55.73,-1.84 -111.9,-2.481 -168.33,-2.481 -127.57,0 -256.43,3.274 -384.4,3.274 -56.59,0 -113.018,-0.641 -169.08,-2.492 l 0.383,-11.68 11.683,0.25 c -3.547,165.699 -7.09,367.84 -10.636,533.609 l -1.071,50.039 -21.195,-45.339 c -3.277,-7.321 -4.16,-13.84 -6.777,-21.848 -2.547,-7.981 -6.399,-17.461 -14.547,-29.41 l 9.644,-6.59 -0.668,11.66 c -6.133,-0.351 -14.328,-0.539 -23.816,-0.539 -25.266,0 -59.781,1.309 -91.813,3.918 -16.015,1.309 -31.425,2.941 -44.699,4.871 -13.242,1.918 -24.457,4.211 -31.504,6.508 l -3.597,-11.117 11.468,-2.242 c 13.453,68.781 26.903,137.558 40.356,206.339 3.996,20.471 8.144,40.961 14.398,59.971 6.254,19.04 14.559,36.51 26.696,51.39 15.671,19.23 36.8,33.06 60.976,43.58 24.149,10.52 51.195,17.62 77.871,23.52 48.18,10.68 96.238,18.21 144.498,23.79 l -1.34,11.61 -8.18,-8.35 c 35.78,-35.09 84.87,-56.84 138.97,-56.83 63.45,-0.01 119.9,29.9 156.2,76.19 l -9.19,7.21 0.89,-11.65 c 30.17,2.31 60.26,4.67 89.67,4.67 51.88,-0.01 101.27,-7.29 146.55,-34.33 l 5.99,10.03"
         style="fill:#193048;fill-opacity:1;fill-rule:nonzero;stroke:none"
         id="path50" />
      <path
         d="m 1587.27,391.98 c 137.17,111.43 214.78,185.071 334.42,314.301 18.06,19.508 37.21,44.668 28.7,69.61 -3.98,11.691 -13.47,20.668 -22.63,29.16 -53.71,49.758 -79.21,47.519 -132.91,97.281 l -82.26,-29.961 c 40.93,-39.211 42.59,-52.762 70.9,-86.562 2.97,-3.539 6.88,-7.039 6.68,-11.61 -0.14,-3.078 -1.99,-5.801 -3.79,-8.328 -82.1,-115.59 -124.29,-188.519 -227.1,-287.109 l 27.99,-86.782"
         style="fill:#d3d2d2;fill-opacity:1;fill-rule:nonzero;stroke:none"
         id="path52" />
      <path
         d="m 1594.76,382.75 c 137.45,111.641 215.84,186.02 335.65,315.461 7.77,8.391 15.97,18 22.48,28.769 6.47,10.739 11.44,22.891 11.47,36.309 0.01,5.41 -0.85,10.973 -2.72,16.441 -2.63,7.711 -6.92,14.11 -11.54,19.602 -4.63,5.488 -9.66,10.156 -14.27,14.438 -27.57,25.582 -48.63,38.261 -68.41,50.109 -19.82,11.91 -38.36,22.992 -64.5,47.172 l -5.32,4.937 -107.02,-38.988 13.79,-13.211 c 20.05,-19.23 29.98,-31.59 38.78,-43.707 8.77,-12.094 16.63,-24.48 31.23,-41.91 1.85,-2.172 3.3,-3.723 3.86,-4.543 l 0.27,-0.418 0.03,-0.051 1.56,0.801 -1.68,-0.449 0.12,-0.352 1.56,0.801 -1.68,-0.449 3.77,1.019 h -3.9 l 0.13,-1.019 3.77,1.019 h -3.9 4.14 l -4.14,0.18 v -0.18 h 4.14 l -4.14,0.18 2.81,-0.121 -2.7,0.82 -0.11,-0.699 2.81,-0.121 -2.7,0.82 0.53,-0.16 -0.52,0.199 -0.01,-0.039 0.53,-0.16 -0.52,0.199 c 0.01,-0.058 -0.58,-1.129 -1.72,-2.687 -41.18,-57.992 -72.24,-105.09 -105.61,-149.703 -33.39,-44.629 -69.1,-86.868 -120.03,-135.719 l 16.45,-17.16 c 51.88,49.742 88.67,93.25 122.61,138.64 33.96,45.399 65.04,92.559 105.96,150.168 0.94,1.344 2.19,3.071 3.41,5.434 1.19,2.34 2.39,5.449 2.56,9.258 l 0.02,0.851 c -0.02,5.758 -2.47,10.11 -4.46,12.899 -2.06,2.84 -3.96,4.73 -5,6.011 -13.71,16.368 -20.84,27.661 -30.2,40.59 -9.35,12.918 -20.71,26.938 -41.58,46.918 l -8.23,-8.578 4.07,-11.172 82.25,29.973 -4.06,11.16 -8.08,-8.711 c 27.57,-25.59 48.63,-38.262 68.42,-50.121 19.81,-11.898 38.35,-22.988 64.49,-47.168 4.55,-4.211 8.85,-8.273 12.24,-12.312 3.42,-4.051 5.87,-7.989 7.23,-11.969 1,-2.942 1.44,-5.801 1.44,-8.762 0.04,-7.238 -2.88,-15.488 -8.05,-24.027 -5.13,-8.512 -12.32,-17.082 -19.57,-24.91 C 1793.51,585.34 1716.67,512.43 1579.77,401.199 l 14.99,-18.449"
         style="fill:#193048;fill-opacity:1;fill-rule:nonzero;stroke:none"
         id="path54" />
      <path
         d="m 1447.7238,2891.8708 c -387.31,0 -751.43698,-150.82 -1025.30498,-424.7 -273.871,-273.86 -424.6950012,-637.99 -424.6950012,-1025.3 0,-387.31 150.8240012,-751.44102 424.6950012,-1025.30902 273.868,-273.859 637.99498,-424.6909984 1025.30498,-424.6909984 387.31,0 751.44,150.8319984 1025.31,424.6909984 273.86,273.868 424.69,637.99902 424.69,1025.30902 0,387.31 -150.83,751.44 -424.69,1025.3 -273.87,273.88 -638,424.7 -1025.31,424.7 m 0,-421.82 c 567.85,0 1028.18,-460.33 1028.18,-1028.18 0,-567.85202 -460.33,-1028.18002 -1028.18,-1028.18002 -567.84798,0 -1028.18398,460.328 -1028.18398,1028.18002 0,567.85 460.336,1028.18 1028.18398,1028.18"
         style="fill:#193048;fill-opacity:1;fill-rule:nonzero;stroke:none;stroke-opacity:1"
         id="path56" />
      <path
         d="m 864.086,1517.4 c -5.578,-1.6 -11.688,-2.53 -18.414,-2.53 -16.254,0 -29.09,5.13 -38.617,13.2 -41.039,28.91 -29.34,108.66 34.957,108.66 3.824,0 7.406,-0.36 10.855,-0.89 1.262,0.06 2.485,0.18 3.785,0.18 76.078,0 78.434,-111.35 7.434,-118.62 z m 105.203,125.78 c -19.004,21.16 -41.617,39.33 -67.012,52.66 -60.859,31.96 -132.89,34.38 -201.992,36.08 l -25.797,-67.8 c 28.828,-43.49 49.95,-91.39 77.032,-135.94 27.078,-44.55 61.593,-86.89 108.726,-110.75 38.27,-19.37 83.555,-25.23 125.68,-16.25 10.133,2.16 20.344,5.28 28.474,11.56 16.89,13.06 20.9,36.35 21.03,57.37 0.41,62.94 -23.61,125.73 -66.141,173.07"
         style="fill:#193048;fill-opacity:1;fill-rule:nonzero;stroke:none"
         id="path58" />
      <g
         id="g60">
        <g
           id="g62"
           clip-path="url(#clipPath66)">
          <path
             d="m 1500.15,2183.67 94.97,-264.1 c 39.3,-122.02 47.17,-254.4 8.29,-377.54 -30.85,-97.68 -89.74,-202.55 -182.85,-255.3 -61.57,-34.88 -135.94,-44.83 -206.54,-35.81 -153.83,19.66 -286.543,114.1 -366.536,241.59 -7.011,11.17 -46.132,22.71 -51.441,34.55 -6.934,15.45 -19.121,31.4 -23.617,47.7 -4.289,15.55 25.429,31.42 22.887,47.48 -9.086,57.41 -1.864,117.26 -1.973,173.55 l 16.461,174.72"
             style="fill:url(#linearGradient76);fill-opacity:1;fill-rule:nonzero;stroke:none"
             id="path78" />
        </g>
      </g>
      <path
         d="m 1489.16,2179.72 94.96,-264.1 11,3.95 -11.13,-3.58 c 21.33,-66.2 33.22,-135.41 33.22,-204.33 0,-56.13 -7.88,-112.07 -24.95,-166.11 -15.13,-47.96 -37.18,-97.64 -66.63,-141.51 -29.46,-43.9 -66.26,-81.91 -110.83,-107.15 -45.35,-25.7 -98.41,-37.43 -151.78,-37.43 -15.89,0 -31.8,1.04 -47.52,3.05 -149.93,19.12 -279.812,111.39 -358.117,236.21 -1.957,3.07 -4.223,5.18 -6.582,7.1 -4.137,3.31 -8.805,5.98 -13.731,8.64 -7.355,3.93 -15.3,7.7 -21.422,11.2 -3.046,1.73 -5.617,3.4 -7.242,4.71 l -1.656,1.52 -0.203,0.25 -1.637,-1.1 1.793,0.8 -0.156,0.3 -1.637,-1.1 1.793,0.8 c -3.906,8.67 -8.859,16.74 -13.195,24.48 -4.36,7.71 -8.051,15.06 -9.817,21.55 l -0.003,0.04 c -0.055,0.09 0.23,1.69 1.878,4.26 2.372,3.86 7.114,9.05 11.707,14.91 2.297,2.97 4.582,6.17 6.473,9.91 1.863,3.72 3.399,8.15 3.406,13.27 0.004,1.25 -0.093,2.53 -0.297,3.81 -3.386,21.39 -4.449,43.38 -4.449,65.64 -0.008,34.77 2.61,70.13 2.621,104.82 l -0.004,1.29 -11.683,-0.03 11.633,-1.09 16.461,174.72 -23.266,2.19 -16.516,-175.28 v -0.56 l 0.004,-1.24 c 0.008,-33.51 -2.609,-68.91 -2.621,-104.82 0.004,-22.99 1.086,-46.21 4.738,-69.29 l 0.008,-0.16 c 0.051,-0.29 -0.273,-1.94 -1.914,-4.55 -2.367,-3.91 -7.07,-9.08 -11.644,-14.86 -2.285,-2.94 -4.563,-6.09 -6.461,-9.77 -1.867,-3.67 -3.43,-8.05 -3.446,-13.17 0,-2.04 0.27,-4.17 0.844,-6.26 2.731,-9.81 7.383,-18.59 11.977,-26.79 4.613,-8.18 9.218,-15.81 12.242,-22.59 1.648,-3.6 3.887,-6.07 6.18,-8.22 4.05,-3.7 8.652,-6.51 13.558,-9.29 7.328,-4.09 15.375,-7.88 21.844,-11.4 3.219,-1.75 6.023,-3.43 7.969,-4.82 0.968,-0.69 1.715,-1.31 2.172,-1.75 l 0.461,-0.48 0.066,-0.07 0.785,0.58 -0.828,-0.52 0.043,-0.06 0.785,0.58 -0.828,-0.52 c 81.68,-130.16 217.224,-226.78 374.954,-246.97 16.68,-2.14 33.57,-3.24 50.48,-3.24 56.75,0.01 113.77,12.42 163.3,40.47 48.54,27.51 87.74,68.31 118.72,114.46 30.97,46.17 53.8,97.76 69.51,147.49 17.84,56.5 26.03,114.83 26.03,173.15 0,71.61 -12.34,143.19 -34.34,211.49 l -0.06,0.19 -95.03,264.29 -21.99,-7.91"
         style="fill:#193048;fill-opacity:1;fill-rule:nonzero;stroke:none"
         id="path80" />
      <path
         d="m 1092.46,1461.11 c 47.01,-44.04 106.05,-70.26 167.27,-70.27 14.98,0 30.08,1.58 45.11,4.84 71.59,15.52 127.35,66.2 158.04,133.16 2.69,5.86 0.12,12.8 -5.74,15.49 -5.87,2.7 -12.8,0.13 -15.5,-5.74 -28.27,-61.42 -78.23,-106.27 -141.76,-120.07 -13.39,-2.91 -26.8,-4.31 -40.15,-4.31 -54.43,-0.01 -107.96,23.38 -151.29,63.96 -4.71,4.41 -12.11,4.17 -16.52,-0.54 -4.41,-4.71 -4.17,-12.11 0.54,-16.52"
         style="fill:#193048;fill-opacity:1;fill-rule:nonzero;stroke:none"
         id="path82" />
      <path
         d="m 1162.58,1681.32 c 0,21.84 -17.7,39.55 -39.54,39.55 -21.84,0 -39.55,-17.71 -39.55,-39.55 0,-21.84 17.71,-39.54 39.55,-39.54 21.84,0 39.54,17.7 39.54,39.54"
         style="fill:#193048;fill-opacity:1;fill-rule:nonzero;stroke:none"
         id="path84" />
      <path
         d="m 1429.21,1715.86 c 0,21.84 -17.7,39.54 -39.54,39.54 -21.84,0 -39.55,-17.7 -39.55,-39.54 0,-21.84 17.71,-39.55 39.55,-39.55 21.84,0 39.54,17.71 39.54,39.55"
         style="fill:#193048;fill-opacity:1;fill-rule:nonzero;stroke:none"
         id="path86" />
      <path
         d="m 816.699,1644.62 c -27.164,-18.34 -41.23,-45.9 -41.246,-72.05 -0.07,-19.75 8.344,-39.1 25.102,-51.29 13.922,-10.05 33.777,-18.25 54.824,-18.38 7.445,0 15.055,1.1 22.406,3.78 7.344,2.67 14.406,6.96 20.469,13.03 4.566,4.56 4.574,11.96 0.016,16.52 -4.559,4.57 -11.961,4.58 -16.528,0.02 -3.609,-3.6 -7.562,-6 -11.961,-7.61 -4.39,-1.6 -9.254,-2.37 -14.402,-2.37 -14.5,-0.12 -31.16,6.54 -41.035,13.88 -10.199,7.5 -15.446,18.93 -15.52,32.42 -0.011,17.72 9.707,38.33 30.957,52.68 5.348,3.61 6.754,10.88 3.145,16.23 -3.613,5.34 -10.875,6.75 -16.227,3.14"
         style="fill:#193048;fill-opacity:1;fill-rule:nonzero;stroke:none"
         id="path88" />
      <path
         d="m 1290.61,1624.78 c 4.91,-2.76 10.29,-7.66 14.92,-13.46 4.65,-5.78 8.59,-12.44 11.12,-18.31 2.82,-6.52 4.38,-13.72 4.37,-20.6 0,-5.96 -1.14,-11.66 -3.48,-16.72 -2.57,-5.56 -6.63,-10.52 -11.81,-14.77 -5.17,-4.24 -11.44,-7.7 -18.02,-10.13 -6.98,-2.6 -15.07,-4.19 -22.74,-4.18 -5.43,-0.01 -10.65,0.78 -15.22,2.38 -4.59,1.6 -8.54,3.95 -11.86,7.26 -4.56,4.56 -11.96,4.55 -16.52,-0.02 -4.56,-4.56 -4.55,-11.96 0.01,-16.52 6.04,-6.03 13.22,-10.21 20.69,-12.8 7.48,-2.6 15.26,-3.67 22.9,-3.68 10.81,0.02 21.39,2.14 30.86,5.64 8.74,3.25 17.23,7.85 24.71,13.97 7.46,6.1 13.93,13.78 18.21,23.05 3.92,8.49 5.64,17.58 5.64,26.52 0,10.35 -2.27,20.54 -6.29,29.86 -3.44,7.96 -8.33,16.16 -14.35,23.67 -6.03,7.5 -13.16,14.33 -21.57,19.15 -5.61,3.2 -12.74,1.24 -15.94,-4.37 -3.19,-5.6 -1.24,-12.74 4.37,-15.94"
         style="fill:#193048;fill-opacity:1;fill-rule:nonzero;stroke:none"
         id="path90" />
      <path
         d="m 639.727,1855.65 c 9.214,48.35 23.144,97.42 54.117,136.23 30.972,38.81 82.386,65.39 131.801,55.58 -5.614,1.11 -0.692,40.09 -0.207,45.08 2.41,24.73 8.039,48.75 18.296,71.45 31.223,69.12 101.18,108.58 167.736,138.18 61.01,27.13 124.89,48.74 190.99,58.25 84.26,12.12 169.73,1.3 248.64,-30.42 38.26,-15.37 74.43,-36.77 104.15,-65.56 60.58,-58.69 88.73,-143.35 94.04,-226.47 5.31,-83.11 -10.03,-166.02 -25.32,-247.96 -53.51,92.03 -137.97,166.62 -237.17,209.45 18.4,-27.31 27.62,-60.41 25.92,-93.05 -58.79,-7.43 -119.09,-3.28 -176.23,12.14 24.04,-28.49 37.97,-64.94 38.9,-101.82 -126.56,9.65 -250.92,45.94 -362.117,105.67 -0.632,-60.51 -1.261,-121.02 -1.894,-181.53 -0.547,-52.43 -5.297,-113.11 -49.281,-143.28 -50.328,-34.51 -145.621,-11.25 -186.641,29.33 -55.914,55.32 -48.91,159.56 -35.73,228.73"
         style="fill:#193048;fill-opacity:1;fill-rule:nonzero;stroke:none"
         id="path92" />
      <path
         d="m 764.273,774.551 c -1.289,-22.801 -3.925,-33.801 -4.839,-56.641 -1.239,-30.988 -6.77,-69.93 7.929,-98.449 13.75,-26.68 46.039,-43.289 72.969,-53.68 156.305,-60.312 249.698,-88.441 405.148,-79.133 l -70.1,66.071 c -41.67,15.062 -103.98,27.519 -143.8,39.531 -22.6,6.809 -56.053,18.121 -77.963,26.898 -14.351,5.762 -47.09,11.75 -55.984,23.571 -3.223,4.269 -4.192,9.793 -4.867,15.101 -2.727,21.262 -2.258,67.649 -2.215,89.039 0.012,4.09 0.316,20.172 0.316,20.172 l -126.594,7.52"
         style="fill:#a7a5a6;fill-opacity:1;fill-rule:nonzero;stroke:none"
         id="path94" />
      <path
         d="m 752.605,775.211 c -0.625,-11.063 -1.566,-19.18 -2.507,-27.68 -0.942,-8.492 -1.871,-17.359 -2.34,-29.16 -0.543,-13.812 -2.047,-29.93 -2.055,-46.473 0.035,-19.41 1.992,-39.66 11.274,-57.789 8.175,-15.8 21.25,-27.82 35.437,-37.308 14.227,-9.492 29.758,-16.531 43.711,-21.922 68.477,-26.418 125.227,-46.82 180.785,-60.66 55.54,-13.828 109.83,-21.008 172.74,-21 18.05,0 36.81,0.582 56.53,1.769 l 26.99,1.614 -91.54,86.277 -2.28,0.832 c -21.59,7.801 -47.84,14.719 -73.7,21.25 -25.84,6.508 -51.31,12.629 -70.7,18.48 -22.23,6.7 -55.63,18 -76.981,26.559 -4.34,1.73 -9.27,3.219 -14.571,4.801 -7.906,2.347 -16.578,4.859 -23.632,7.648 -3.516,1.391 -6.614,2.852 -8.875,4.211 -2.278,1.352 -3.625,2.641 -3.926,3.09 -0.485,0.641 -1.012,1.672 -1.477,3.309 -0.465,1.632 -0.82,3.781 -1.133,6.242 -0.89,6.89 -1.472,17.648 -1.781,29.308 -0.316,11.68 -0.394,24.36 -0.394,35.653 0,8.707 0.047,16.59 0.058,22.578 0.004,1.851 0.082,6.941 0.16,11.441 0.079,4.52 0.153,8.52 0.153,8.528 0.125,6.453 -5.008,11.781 -11.461,11.91 -6.453,0.121 -11.781,-5.008 -11.906,-11.457 0,-0.063 -0.305,-16.012 -0.317,-20.371 -0.012,-5.922 -0.058,-13.84 -0.058,-22.629 0,-11.391 0.074,-24.262 0.402,-36.293 0.332,-12.059 0.887,-23.18 1.961,-31.637 0.371,-2.844 0.836,-6.102 1.828,-9.633 1,-3.519 2.563,-7.379 5.297,-11.008 4.07,-5.293 9.152,-8.461 14.516,-11.242 8.066,-4.09 17.218,-7.019 25.746,-9.609 8.461,-2.551 16.418,-4.789 20.714,-6.531 22.465,-9 55.967,-20.321 78.937,-27.25 20.43,-6.161 46.03,-12.278 71.72,-18.758 25.66,-6.473 51.41,-13.313 71.48,-20.571 l 3.97,10.989 -8.02,-8.508 70.1,-66.063 8.02,8.5 -0.7,11.672 c -19.3,-1.16 -37.59,-1.73 -55.13,-1.73 -61.15,0.012 -113.16,6.898 -167.1,20.308 -53.913,13.422 -109.796,33.461 -178.011,59.782 -12.976,5 -27.055,11.468 -39.144,19.55 -12.129,8.079 -22.071,17.711 -27.641,28.579 -6.598,12.679 -8.719,29.312 -8.68,47.089 -0.008,15.114 1.442,30.852 2.035,45.543 0.446,11.047 1.289,19.098 2.219,27.52 0.93,8.398 1.949,17.18 2.613,28.93 0.364,6.441 -4.562,11.961 -11.007,12.32 -6.442,0.371 -11.961,-4.563 -12.329,-11"
         style="fill:#193048;fill-opacity:1;fill-rule:nonzero;stroke:none"
         id="path96" />
      <g
         id="g98">
        <g
           id="g100"
           clip-path="url(#clipPath104)">
          <path
             d="m 715.227,789.012 c 38.91,-12.59 155.175,-17.653 196.097,-15.301"
             style="fill:url(#linearGradient114);fill-opacity:1;fill-rule:nonzero;stroke:none"
             id="path116" />
        </g>
      </g>
      <path
         d="m 711.629,777.891 c 9.332,-3 21.344,-5.34 35.332,-7.391 41.82,-6.078 100.809,-9.02 139.879,-9.039 9.801,0 18.332,0.187 25.156,0.578 l -1.34,23.332 c -6.133,-0.351 -14.328,-0.539 -23.816,-0.539 -25.266,0 -59.781,1.309 -91.813,3.918 -16.015,1.309 -31.425,2.941 -44.699,4.879 -13.242,1.91 -24.457,4.203 -31.504,6.5 l -7.195,-22.238"
         style="fill:#193048;fill-opacity:1;fill-rule:nonzero;stroke:none"
         id="path118" />
      <path
         d="m 1559.49,798.488 -511.81,13.782 51.44,52.039 392.27,-6.188 c 32.54,-0.5 60.41,-23.43 67.17,-55.262 l 0.93,-4.371"
         style="fill:#a7a5a6;fill-opacity:1;fill-rule:nonzero;stroke:none"
         id="path120" />
      <g
         id="g122">
        <g
           id="g124"
           clip-path="url(#clipPath128)">
          <path
             d="m 1558.8,802.16 c -5.22,32.481 13.15,64.422 44.26,76.051 0.01,0 0.01,0.008 0.02,0.008 l 44.42,16.082 174.04,63.031 23.29,8.438 14.16,5.121 23.05,-2.879 17.9,-2.231 26.99,-3.383 L 1558.8,802.16"
             style="fill:url(#linearGradient136);fill-opacity:1;fill-rule:nonzero;stroke:none"
             id="path138" />
        </g>
      </g>
      <path
         d="m 1591.83,789.012 -550.42,23.457 149.7,-437.649 369.49,-28.699 -34.26,431.809 65.49,11.082"
         style="fill:#db2943;fill-opacity:1;fill-rule:nonzero;stroke:none"
         id="path140" />
      <path
         d="M 1547.87,358.832 1199.68,385.879 1058,800.07 1514.96,780.59 c -0.27,-1.141 -0.36,-2.352 -0.27,-3.578 l 33.18,-418.18"
         style="fill:#901928;fill-opacity:1;fill-rule:nonzero;stroke:none"
         id="path142" />
      <path
         d="m 1591.83,789.012 0.49,11.679 -550.41,23.457 c -3.87,0.161 -7.54,-1.578 -9.86,-4.679 -2.31,-3.098 -2.95,-7.117 -1.7,-10.778 l 149.7,-437.652 c 1.51,-4.398 5.52,-7.508 10.16,-7.867 l 369.49,-28.703 c 3.41,-0.27 6.75,0.972 9.17,3.39 2.42,2.43 3.65,5.77 3.38,9.18 l -33.41,421.16 54.94,9.289 c 5.91,1 10.08,6.274 9.71,12.25 -0.37,5.992 -5.18,10.692 -11.17,10.953 l -0.49,-11.679 -1.95,11.527 -65.49,-11.078 c -5.98,-1.012 -10.18,-6.402 -9.7,-12.449 l 33.18,-418.18 -348.19,27.047 -141.68,414.191 533.33,-22.73 0.5,11.672 -1.95,11.527 1.95,-11.527"
         style="fill:#193048;fill-opacity:1;fill-rule:nonzero;stroke:none"
         id="path144" />
      <path
         d="m 1977.98,971.879 -416.8,-181.43 29.39,7.68 40.58,-443.43 295.65,159.86 51.18,457.32"
         style="fill:#db2943;fill-opacity:1;fill-rule:nonzero;stroke:none"
         id="path146" />
      <path
         d="M 1641.17,373.41 1602.53,795.711 1964.12,953.102 1915.86,521.93 1641.17,373.41"
         style="fill:#b62136;fill-opacity:1;fill-rule:nonzero;stroke:none"
         id="path148" />
      <path
         d="m 1977.98,971.879 -4.67,10.711 -416.8,-181.418 c -5.59,-2.442 -8.37,-8.774 -6.38,-14.543 2,-5.758 8.1,-9.027 14,-7.481 l 16.06,4.192 39.32,-429.699 c 0.36,-3.93 2.64,-7.371 6.12,-9.243 3.48,-1.859 7.6,-1.847 11.07,0.024 l 295.65,159.859 c 3.37,1.821 5.63,5.168 6.06,8.981 l 51.18,457.316 c 0.46,4.141 -1.31,8.223 -4.67,10.703 -3.36,2.481 -7.78,2.981 -11.61,1.309 l 4.67,-10.711 -11.62,1.301 -50.5,-451.25 -274.69,-148.52 -38.96,425.781 c -0.31,3.411 -2.12,6.539 -4.92,8.5 -2.81,1.969 -6.36,2.61 -9.67,1.75 l -29.4,-7.679 2.96,-11.313 4.66,-10.711 416.8,181.422 -4.66,10.719 -11.62,1.301 11.62,-1.301"
         style="fill:#193048;fill-opacity:1;fill-rule:nonzero;stroke:none"
         id="path150" />
      <path
         d="m 1591.83,803 -72.66,-11.078 41.43,-445.801 70.55,8.578 L 1591.83,803"
         style="fill:#db2943;fill-opacity:1;fill-rule:nonzero;stroke:none"
         id="path152" />
      <path
         d="m 1560.6,346.121 -41.43,445.801 72.66,11.078 39.32,-448.301 -11.6,-1.41 -58.95,-7.168"
         style="fill:#a31d2f;fill-opacity:1;fill-rule:nonzero;stroke:none"
         id="path154" />
      <path
         d="m 1591.83,802.988 -1.76,11.563 -83.55,-12.742 43.56,-468.739 93.69,11.399 -41.39,471.953 -12.31,-1.871 1.76,-11.563 -11.64,-1.019 38.33,-437.028 -47.39,-5.769 -39.3,422.859 61.76,9.41 -1.76,11.547 -11.64,-1.019 11.64,1.019"
         style="fill:#193048;fill-opacity:1;fill-rule:nonzero;stroke:none"
         id="path156" />
      <path
         d="m 2056.36,884.68 c -12.26,0 -22.23,9.968 -22.23,22.23 0,12.262 9.97,22.231 22.23,22.231 h 47.46 c 12.26,0 22.24,-9.969 22.24,-22.231 0,-12.262 -9.98,-22.23 -22.24,-22.23 h -47.46"
         style="fill:#d3d2d2;fill-opacity:1;fill-rule:nonzero;stroke:none"
         id="path158" />
      <path
         d="m 2103.82,940.828 h -47.46 c -18.7,0 -33.91,-15.219 -33.91,-33.918 0,-18.699 15.21,-33.922 33.91,-33.922 h 47.46 c 18.7,0 33.92,15.223 33.92,33.922 0,18.699 -15.22,33.918 -33.92,33.918 z m 0,-23.379 c 5.82,0 10.54,-4.719 10.54,-10.539 0,-5.828 -4.72,-10.551 -10.54,-10.551 h -47.46 c -5.82,0 -10.54,4.723 -10.54,10.551 0,5.82 4.72,10.539 10.54,10.539 h 47.46"
         style="fill:#193048;fill-opacity:1;fill-rule:nonzero;stroke:none"
         id="path160" />
      <path
         d="m 2056.36,837.219 c -12.26,0 -22.23,9.972 -22.23,22.23 0,12.262 9.97,22.242 22.23,22.242 h 36.91 c 12.26,0 22.24,-9.98 22.24,-22.242 0,-12.258 -9.98,-22.23 -22.24,-22.23 h -36.91"
         style="fill:#d3d2d2;fill-opacity:1;fill-rule:nonzero;stroke:none"
         id="path162" />
      <path
         d="m 2093.27,893.371 h -36.91 c -18.7,0 -33.91,-15.211 -33.91,-33.922 0,-18.699 15.21,-33.91 33.91,-33.91 h 36.91 c 18.7,0 33.92,15.211 33.92,33.91 0,18.711 -15.22,33.922 -33.92,33.922 z m 0,-23.371 c 5.83,0 10.55,-4.719 10.55,-10.551 0,-5.82 -4.72,-10.539 -10.55,-10.539 h -36.91 c -5.82,0 -10.54,4.719 -10.54,10.539 0,5.832 4.72,10.551 10.54,10.551 h 36.91"
         style="fill:#193048;fill-opacity:1;fill-rule:nonzero;stroke:none"
         id="path164" />
      <path
         d="m 2061.63,789.77 c -12.25,0 -22.22,9.968 -22.22,22.23 0,12.262 9.97,22.23 22.22,22.23 h 21.1 c 12.25,0 22.23,-9.968 22.23,-22.23 0,-12.262 -9.98,-22.23 -22.23,-22.23 h -21.1"
         style="fill:#d3d2d2;fill-opacity:1;fill-rule:nonzero;stroke:none"
         id="path166" />
      <path
         d="m 2082.73,845.922 h -21.09 c -18.7,0 -33.92,-15.223 -33.92,-33.922 0,-18.699 15.22,-33.918 33.92,-33.918 h 21.09 c 18.7,0 33.91,15.219 33.91,33.918 0,18.699 -15.21,33.922 -33.91,33.922 z m 0,-23.371 c 5.82,0 10.54,-4.731 10.54,-10.551 0,-5.82 -4.72,-10.551 -10.54,-10.551 h -21.09 c -5.83,0 -10.55,4.731 -10.55,10.551 0,5.82 4.72,10.551 10.55,10.551 h 21.09"
         style="fill:#193048;fill-opacity:1;fill-rule:nonzero;stroke:none"
         id="path168" />
      <path
         d="m 1086.88,555.57 c -10.95,0 -20.17,7.84 -21.93,18.649 -0.96,5.851 0.42,11.73 3.88,16.562 3.47,4.821 8.6,8 14.46,8.957 l 46.84,7.66 c 1.21,0.204 2.42,0.301 3.6,0.301 10.94,0 20.16,-7.847 21.93,-18.648 1.97,-12.102 -6.26,-23.551 -18.35,-25.531 l -46.83,-7.661 c -1.22,-0.199 -2.42,-0.289 -3.6,-0.289 v 0"
         style="fill:#d3d2d2;fill-opacity:1;fill-rule:nonzero;stroke:none"
         id="path170" />
      <path
         d="m 1133.73,619.379 c -1.83,0 -3.67,-0.149 -5.48,-0.449 l -46.84,-7.66 c -18.45,-3.02 -31.01,-20.489 -28,-38.938 2.7,-16.492 16.77,-28.453 33.46,-28.453 1.83,0 3.68,0.152 5.49,0.453 l 46.83,7.656 c 8.94,1.461 16.78,6.321 22.07,13.672 5.29,7.36 7.39,16.34 5.93,25.281 -2.7,16.481 -16.77,28.438 -33.46,28.438 z m 0,-23.367 c 5.08,0 9.55,-3.68 10.4,-8.852 0.94,-5.738 -2.96,-11.172 -8.71,-12.109 l -46.83,-7.66 -1.72,-0.141 c -5.07,0 -9.54,3.68 -10.39,8.852 -0.94,5.75 2.96,11.168 8.7,12.109 l 46.84,7.66 1.71,0.141"
         style="fill:#193048;fill-opacity:1;fill-rule:nonzero;stroke:none"
         id="path172" />
      <path
         d="m 1104.94,510.441 c -10.94,0 -20.16,7.84 -21.93,18.649 -0.95,5.851 0.42,11.73 3.89,16.558 3.47,4.821 8.61,8 14.47,8.961 l 36.42,5.961 c 1.21,0.2 2.41,0.289 3.6,0.289 10.94,0 20.16,-7.839 21.93,-18.648 0.95,-5.852 -0.42,-11.731 -3.89,-16.563 -3.47,-4.82 -8.6,-8 -14.47,-8.957 l -36.42,-5.961 c -1.2,-0.191 -2.41,-0.289 -3.6,-0.289"
         style="fill:#d3d2d2;fill-opacity:1;fill-rule:nonzero;stroke:none"
         id="path174" />
      <path
         d="m 1141.39,572.551 c -1.83,0 -3.67,-0.153 -5.48,-0.449 l -36.43,-5.961 c -18.46,-3.02 -31.02,-20.493 -28,-38.942 2.7,-16.48 16.77,-28.449 33.46,-28.449 1.83,0 3.68,0.148 5.49,0.449 l 36.42,5.961 c 18.46,3.02 31.02,20.488 28,38.942 -2.69,16.488 -16.77,28.449 -33.46,28.449 z m 0,-23.371 c 5.08,0 9.55,-3.68 10.4,-8.848 0.94,-5.754 -2.96,-11.172 -8.71,-12.113 l -36.42,-5.957 -1.72,-0.141 c -5.07,0 -9.55,3.68 -10.39,8.848 v 0 c -0.94,5.75 2.95,11.172 8.7,12.113 l 36.43,5.957 1.71,0.141"
         style="fill:#193048;fill-opacity:1;fill-rule:nonzero;stroke:none"
         id="path176" />
      <path
         d="m 1123,465.309 c -10.93,0 -20.15,7.839 -21.92,18.64 -1.97,12.102 6.26,23.551 18.35,25.531 l 20.82,3.411 c 1.21,0.191 2.41,0.289 3.6,0.289 10.94,0 20.16,-7.84 21.93,-18.641 1.97,-12.098 -6.26,-23.551 -18.35,-25.539 l -20.82,-3.398 c -1.21,-0.192 -2.41,-0.293 -3.61,-0.293"
         style="fill:#d3d2d2;fill-opacity:1;fill-rule:nonzero;stroke:none"
         id="path178" />
      <path
         d="m 1143.85,524.859 c -1.83,0 -3.68,-0.148 -5.49,-0.437 l -20.81,-3.41 c -8.94,-1.461 -16.78,-6.321 -22.07,-13.672 -5.29,-7.36 -7.39,-16.328 -5.93,-25.27 2.7,-16.48 16.77,-28.449 33.46,-28.449 1.83,0 3.67,0.149 5.49,0.449 l 20.81,3.399 c 8.94,1.472 16.78,6.32 22.07,13.679 5.28,7.364 7.39,16.332 5.93,25.274 -2.7,16.476 -16.77,28.437 -33.46,28.437 z m 0,-23.371 c 5.07,0 9.55,-3.668 10.39,-8.84 0.94,-5.75 -2.95,-11.168 -8.7,-12.109 l -20.82,-3.41 -1.71,-0.141 c -5.08,0 -9.55,3.684 -10.4,8.852 -0.94,5.75 2.96,11.172 8.71,12.109 l 20.81,3.403 1.72,0.136"
         style="fill:#193048;fill-opacity:1;fill-rule:nonzero;stroke:none"
         id="path180" />
      <path
         d="m 316.133,1372.46 -67.59,-24.9 2.797,-71.98 -44.567,56.59 -67.589,-24.9 40.046,59.87 -44.566,56.59 69.313,-19.59 40.046,59.87 2.793,-71.97 69.317,-19.58"
         style="fill:#ffffff;fill-opacity:1;fill-rule:nonzero;stroke:none"
         id="path308" />
      <path
         d="m 376.137,1082.61 -58.84,-41.55 21.328,-68.79 -57.691,43.12 -58.84,-41.538 23.183,68.188 -57.691,43.12 72.019,-0.97 23.184,68.19 21.328,-68.8 72.02,-0.97"
         style="fill:#ffffff;fill-opacity:1;fill-rule:nonzero;stroke:none"
         id="path310" />
      <path
         d="m 333.188,1667.96 -71.731,-6.56 -15.93,-70.24 -28.398,66.19 -71.731,-6.56 54.176,47.47 -28.402,66.19 61.883,-36.85 54.175,47.46 -15.929,-70.24 61.887,-36.86"
         style="fill:#ffffff;fill-opacity:1;fill-rule:nonzero;stroke:none"
         id="path312" />
      <path
         d="m 2583.87,1372.46 67.59,-24.9 -2.8,-71.98 44.57,56.59 67.59,-24.9 -40.05,59.87 44.57,56.59 -69.32,-19.59 -40.04,59.87 -2.8,-71.97 -69.31,-19.58"
         style="fill:#ffffff;fill-opacity:1;fill-rule:nonzero;stroke:none"
         id="path314" />
      <path
         d="m 2523.86,1082.61 58.84,-41.55 -21.33,-68.79 57.7,43.12 58.84,-41.538 -23.19,68.188 57.7,43.12 -72.03,-0.97 -23.18,68.19 -21.33,-68.8 -72.02,-0.97"
         style="fill:#ffffff;fill-opacity:1;fill-rule:nonzero;stroke:none"
         id="path316" />
      <path
         d="m 2566.81,1667.96 71.73,-6.56 15.93,-70.24 28.4,66.19 71.73,-6.56 -54.17,47.47 28.4,66.19 -61.89,-36.85 -54.17,47.46 15.93,-70.24 -61.89,-36.86"
         style="fill:#ffffff;fill-opacity:1;fill-rule:nonzero;stroke:none"
         id="path318" />
      <g
         inkscape:groupmode="layer"
         id="layer2"
         inkscape:label="Text - bottom"
         style="display:inline;vector-effect:non-scaling-stroke;fill:#ffffff;fill-opacity:1;stroke:none;stroke-width:0.75;stroke-dasharray:none;stroke-opacity:1;-inkscape-stroke:hairline"
         transform="scale(10)">
        <path
           style="opacity:0.98;vector-effect:non-scaling-stroke;fill:#ffffff;fill-opacity:1;stroke:none;stroke-width:0.75;stroke-linecap:round;stroke-linejoin:round;stroke-dasharray:none;stroke-opacity:1;-inkscape-stroke:hairline"
           d="m 239.86986,76.062262 1.63384,-1.032971 1.63347,2.404922 10.25003,-6.937758 1.3655,1.867056 -10.35095,6.980037 1.63674,2.356088 -1.64431,1.115641 z"
           id="path1210"
           inkscape:label="T" />
        <path
           style="opacity:0.98;vector-effect:non-scaling-stroke;fill:#ffffff;fill-opacity:1;stroke:none;stroke-width:0.75;stroke-linecap:round;stroke-linejoin:round;stroke-dasharray:none;stroke-opacity:1;-inkscape-stroke:hairline"
           d="m 240.09027,67.777473 -1.39516,-1.593698 -1.52897,1.281027 c -0.42312,0.354501 -0.97252,0.470466 -1.60453,0.07361 -0.3957,-0.248474 -0.71675,-0.51298 -1.03869,-1.083804 -0.3283,-0.582117 -0.26534,-1.218225 0.23875,-1.644617 l 6.1579,-5.208858 c 0.44823,-0.379158 1.00652,-0.643127 1.67594,-0.135728 0.42414,0.321497 0.74031,0.656134 0.88849,0.944328 0.20813,0.404811 0.49386,1.181307 -0.0759,1.676636 l -1.64242,1.427873 1.3431,1.600378 1.98012,-1.682891 c 1.09645,-0.931864 0.80293,-2.680244 0.54958,-3.139734 -0.58596,-1.062729 -1.19613,-1.984943 -2.40516,-2.866389 -1.20942,-0.88173 -2.77372,-0.439801 -3.20977,-0.06435 l -6.93338,5.969846 c -0.94327,0.812183 -1.04209,2.121138 -0.71621,3.228445 0.27149,0.922506 1.056,1.994721 2.05718,2.684978 1.39945,0.964836 2.73588,0.971078 3.74706,0.127687 z"
           id="path1207"
           sodipodi:nodetypes="ccssssssssccssssssssc"
           inkscape:label="C" />
        <path
           style="opacity:0.98;vector-effect:non-scaling-stroke;fill:#ffffff;fill-opacity:1;stroke:none;stroke-width:0.75;stroke-linecap:round;stroke-linejoin:round;stroke-dasharray:none;stroke-opacity:1;-inkscape-stroke:hairline"
           d="m 230.44801,44.819785 -9.59672,10.666003 5.26167,4.706653 1.31909,-1.418577 -3.60335,-3.250753 2.77826,-3.013243 2.74527,2.512647 1.2785,-1.422887 -2.7901,-2.518859 2.97115,-3.306504 3.64922,3.247094 1.21666,-1.416209 z"
           id="path1203"
           sodipodi:nodetypes="ccccccccccccc"
           inkscape:label="E"
           inkscape:transform-center-x="1.2094482"
           inkscape:transform-center-y="0.4102008" />
        <path
           style="opacity:0.98;vector-effect:non-scaling-stroke;fill:#ffffff;fill-opacity:1;stroke:none;stroke-width:0.75;stroke-linecap:round;stroke-linejoin:round;stroke-dasharray:none;stroke-opacity:1;-inkscape-stroke:hairline"
           d="m 214.90537,50.681296 -1.90896,-1.29384 6.35434,-9.040568 c 0.38362,-0.545781 0.3271,-1.267074 0.13808,-1.603822 -0.24273,-0.432446 -0.8535,-0.803649 -1.11509,-0.887972 -0.49118,-0.158326 -1.09873,-0.04565 -1.47789,0.493142 l -1.29054,1.833832 -1.84531,-1.25142 1.6332,-2.31195 c 0.81791,-1.157829 2.63733,-1.165555 4.11486,-0.424211 0.51921,0.260513 0.9201,0.659779 1.35748,1.018103 1.34611,1.102798 1.21769,3.113738 0.50904,4.136058 z"
           id="path1200"
           sodipodi:nodetypes="ccssssccssssc"
           inkscape:label="J" />
        <path
           style="opacity:0.98;vector-effect:non-scaling-stroke;fill:#ffffff;fill-opacity:1;stroke:none;stroke-width:0.75;stroke-linecap:round;stroke-linejoin:round;stroke-dasharray:none;stroke-opacity:1;-inkscape-stroke:hairline"
           d="m 199.01356,37.141658 c -0.9108,1.721625 2.32002,3.55493 3.31568,1.682228 l 3.62118,-6.81099 c 1.1155,-2.098115 -2.32331,-3.591852 -3.27045,-1.801547 z m 1.8515,-8.340965 c 0.60529,-1.133027 1.7468,-1.791051 3.41775,-1.384041 0.97758,0.238118 1.98631,0.565817 3.32095,1.85068 1.10115,1.060082 1.0819,2.417018 0.4594,3.585147 l -3.96164,7.434204 c -0.7678,1.440813 -2.30413,1.587583 -3.54831,1.280535 -1.1318,-0.279315 -2.16791,-0.842348 -2.99992,-1.754699 -1.27335,-1.396322 -1.12772,-2.701687 -0.60993,-3.670917 z"
           id="path1197"
           sodipodi:nodetypes="ssssssssssssss"
           inkscape:label="O" />
        <path
           style="opacity:0.98;vector-effect:non-scaling-stroke;fill:#ffffff;fill-opacity:1;stroke:none;stroke-width:0.75;stroke-linecap:round;stroke-linejoin:round;stroke-dasharray:none;stroke-opacity:1;-inkscape-stroke:hairline"
           d="m 187.64579,28.004708 c 0.65426,0.223133 1.14136,0.828525 0.91304,1.922891 -0.17585,0.842966 -0.44105,1.507331 -0.75296,2.101441 -0.25228,0.480512 -1.00594,1.047343 -1.81391,0.77396 l -1.49955,-0.50739 1.78865,-4.756344 z m 1.0068,-7.303293 -2.02344,-0.788182 -4.89136,13.383013 4.04539,1.484937 c 1.35366,0.496887 2.92744,-0.158043 3.60238,-1.061419 0.83294,-1.114872 1.20664,-2.44065 1.49161,-3.689796 0.28251,-1.238358 -0.20091,-2.224905 -0.88876,-2.865801 l 4.75495,-4.293581 -2.33694,-0.855407 -4.38277,4.120532 -1.16102,-0.459957 z"
           id="path1194"
           sodipodi:nodetypes="ssssccscccssscccccc"
           inkscape:label="R"
           inkscape:transform-center-x="-6.3207604"
           inkscape:transform-center-y="7.8324854" />
        <path
           style="opacity:0.98;vector-effect:non-scaling-stroke;fill:#ffffff;fill-opacity:1;stroke:none;stroke-width:0.75;stroke-linecap:round;stroke-linejoin:round;stroke-dasharray:none;stroke-opacity:1;-inkscape-stroke:hairline"
           d="m 172.75277,23.604483 c 0.67822,0.133624 1.23905,0.673726 1.15439,1.788445 -0.0652,0.858642 -0.24212,1.551759 -0.47446,2.181262 -0.18792,0.509137 -0.86122,1.165731 -1.69839,1.002365 l -1.73694,-0.338946 1.15758,-4.947937 z m -0.13185,-7.402218 -2.10848,-0.51948 -3.1169,13.903793 4.41878,0.938437 c 1.41052,0.299557 2.88232,-0.535853 3.43457,-1.519034 0.68154,-1.21336 0.88038,-2.576373 1.00117,-3.851902 0.17534,-1.851527 -1.20064,-2.98451 -2.36308,-3.246788 l -2.3967,-0.540759 z"
           id="path1191"
           sodipodi:nodetypes="ssssccscccsssscc"
           inkscape:label="P" />
        <path
           style="opacity:0.98;vector-effect:non-scaling-stroke;fill:#ffffff;fill-opacity:1;stroke:none;stroke-width:0.75;stroke-linecap:round;stroke-linejoin:round;stroke-dasharray:none;stroke-opacity:1;-inkscape-stroke:hairline"
           d="m 142.5116,13.174013 -0.2081,14.286277 1.82754,0.005 5.01042,-9.524006 -0.16686,9.649838 2.05788,0.02782 0.21599,-14.363528 -1.82879,-0.01867 -5.01984,9.797093 0.14928,-9.853073 z"
           id="path1188"
           sodipodi:nodetypes="ccccccccccc"
           inkscape:label="N" />
        <path
           style="opacity:0.98;vector-effect:non-scaling-stroke;fill:#ffffff;fill-opacity:1;stroke:none;stroke-width:0.75;stroke-linecap:round;stroke-linejoin:round;stroke-dasharray:none;stroke-opacity:1;-inkscape-stroke:hairline"
           d="m 128.40229,25.473972 c 0.23449,1.933538 3.9338,1.595384 3.68278,-0.510638 l -0.91296,-7.659573 c -0.28124,-2.359517 -3.95757,-1.623828 -3.71373,0.386847 z M 125.163,17.567851 c -0.1495,-1.275841 0.41241,-2.467609 2.01685,-3.086896 0.93866,-0.362306 1.95403,-0.668831 3.78323,-0.375311 1.50919,0.24217 2.26771,1.367467 2.42311,2.681952 l 0.98901,8.365636 c 0.19168,1.621332 -0.9862,2.618563 -2.18313,3.0764 -1.08882,0.416485 -2.26096,0.545375 -3.46483,0.270936 -1.84248,-0.420019 -2.46779,-1.575084 -2.59567,-2.666486 z"
           id="path1185"
           sodipodi:nodetypes="ssssssssssssss"
           inkscape:label="O" />
        <path
           style="opacity:0.98;vector-effect:non-scaling-stroke;fill:#ffffff;fill-opacity:1;stroke:none;stroke-width:0.75;stroke-linecap:round;stroke-linejoin:round;stroke-dasharray:none;stroke-opacity:1;-inkscape-stroke:hairline"
           d="m 116.84329,30.874358 2.24372,-0.479692 -3.32688,-13.972913 -2.24372,0.572527 z"
           id="path1182"
           inkscape:label="I" />
        <path
           style="opacity:0.98;vector-effect:non-scaling-stroke;fill:#ffffff;fill-opacity:1;stroke:none;stroke-width:0.75;stroke-linecap:round;stroke-linejoin:round;stroke-dasharray:none;stroke-opacity:1;-inkscape-stroke:hairline"
           d="m 102.63827,35.361781 -0.58801,-1.841393 2.73888,-0.97485 -4.13152,-11.667308 2.15086,-0.851062 4.14701,11.775623 2.69245,-0.99033 0.66538,1.872337 z"
           id="path1179"
           inkscape:label="T" />
        <path
           style="opacity:0.98;vector-effect:non-scaling-stroke;fill:#ffffff;fill-opacity:1;stroke:none;stroke-width:7.5;stroke-linecap:round;stroke-linejoin:round;stroke-dasharray:none;stroke-opacity:1;-inkscape-stroke:hairline"
           d="m 872.14402,299.27271 -19.90565,-24.52963 -19.61347,10.54485 94.27132,112.83038 23.83148,-11.59935 -30.7911,-144.25418 -20.24618,10.12312 7.06768,29.87204 z m 39.63006,4.18759 14.91124,63.02338 -40.55305,-49.97332 z"
           id="path976"
           sodipodi:nodetypes="ccccccccccccc"
           inkscape:label="A"
           transform="scale(0.1)" />
        <path
           style="opacity:0.98;vector-effect:non-scaling-stroke;fill:#ffffff;fill-opacity:1;stroke:none;stroke-width:7.5;stroke-linecap:round;stroke-linejoin:round;stroke-dasharray:none;stroke-opacity:1;-inkscape-stroke:hairline"
           d="m 813.54902,401.09236 -17.58315,11.80957 10.75988,16.79588 c 2.97763,4.648 3.42855,10.24496 -1.3122,16.00852 -2.96814,3.60851 -6.00036,6.45623 -12.072,8.92283 -6.19168,2.51537 -12.42086,1.08118 -16.00853,-4.46145 l -43.8267,-67.70828 c -3.19014,-4.92848 -5.09773,-10.80191 0.7873,-16.7958 3.72872,-3.79769 7.45035,-6.5078 10.49741,-7.61062 4.28018,-1.54911 12.34568,-3.39479 16.53339,2.88675 l 12.07208,18.10807 17.58315,-11.28472 -14.17155,-21.78218 c -7.84725,-12.0615 -25.56244,-11.37564 -30.44246,-9.4476 -11.2867,4.45924 -21.21047,9.33749 -31.49222,20.20748 -10.28499,10.87342 -7.89277,26.9517 -4.72383,31.75462 l 50.38756,76.36868 c 6.85511,10.38978 19.71245,13.0361 31.1102,11.21326 9.49564,-1.51864 21.12914,-7.93509 29.24987,-16.98684 11.35123,-12.65261 13.11426,-25.9002 6.036,-37.00335 z"
           id="path2372"
           sodipodi:nodetypes="ccssssssssccssssssssc"
           inkscape:label="C"
           transform="scale(0.1)" />
        <path
           style="opacity:0.98;vector-effect:non-scaling-stroke;fill:#ffffff;fill-opacity:1;stroke:none;stroke-width:0.75;stroke-linecap:round;stroke-linejoin:round;stroke-dasharray:none;stroke-opacity:1;-inkscape-stroke:hairline"
           d="m 65.288673,58.852816 -7.463324,-8.758612 c -0.341331,-0.40057 -0.996144,-2.234116 0.154201,-3.908691 0.472585,-0.687949 1.108087,-1.20743 1.800025,-1.742589 1.121581,-0.867454 3.130766,-1.110331 4.410387,0.346769 l 7.42095,8.450213 -1.696211,1.603688 -7.093243,-8.180182 c -0.529621,-0.610778 -1.318316,-0.759378 -1.919621,-0.493681 -0.329871,0.145759 -0.831225,0.667094 -1.106722,1.029746 -0.468525,0.616745 -0.27216,1.403458 0.223892,1.973525 l 7.027557,8.076127 z"
           id="path2369"
           sodipodi:nodetypes="cssssccsssscc"
           inkscape:label="U" />
        <path
           style="opacity:0.98;vector-effect:non-scaling-stroke;fill:#ffffff;fill-opacity:1;stroke:none;stroke-width:0.75;stroke-linecap:round;stroke-linejoin:round;stroke-dasharray:none;stroke-opacity:1;-inkscape-stroke:hairline"
           d="m 55.522561,66.174212 c 0.833322,-0.960443 1.232008,-2.298877 0.09055,-3.320183 l -4.587893,-4.10496 c -0.538623,-0.481926 -1.876105,-1.047974 -2.942892,0.105645 l -1.29789,1.403532 7.847711,6.94221 z m -0.965872,3.938947 -10.775512,-9.492713 3.259819,-3.516375 c 1.452789,-1.567127 3.561091,-1.48141 4.965187,-0.25656 l 4.965187,4.331333 c 1.646987,1.436733 2.130202,3.647907 0.452752,5.599043 z"
           id="path2366"
           sodipodi:nodetypes="ssssccsccssssc"
           inkscape:label="D" />
        <path
           style="opacity:0.98;vector-effect:non-scaling-stroke;fill:#ffffff;fill-opacity:1;stroke:none;stroke-width:0.75;stroke-linecap:round;stroke-linejoin:round;stroke-dasharray:none;stroke-opacity:1;-inkscape-stroke:hairline"
           d="m 34.414937,73.594802 11.880222,8.044932 3.941404,-5.856873 -1.585924,-1.112307 -2.726434,4.014722 -3.365461,-2.339219 2.112846,-3.06363 -1.584633,-1.07151 -2.112846,3.108897 -3.682388,-2.49014 2.716516,-4.059682 -1.569542,-1.011143 z"
           id="path2364"
           sodipodi:nodetypes="ccccccccccccc"
           inkscape:label="E" />
      </g>
      <g
         inkscape:groupmode="layer"
         id="layer1"
         inkscape:label="Text - top"
         style="display:inline;vector-effect:non-scaling-stroke;fill:#ffffff;fill-opacity:1;stroke:none;stroke-width:1;stroke-dasharray:none;stroke-opacity:1;-inkscape-stroke:hairline"
         transform="matrix(7.5000002,0,0,-7.5000002,0,2900.0001)">
        <path
           style="opacity:0.98;vector-effect:non-scaling-stroke;fill:#ffffff;fill-opacity:1;stroke:none;stroke-width:1;stroke-linecap:round;stroke-linejoin:round;stroke-dasharray:none;stroke-opacity:1;-inkscape-stroke:hairline"
           d="m 348.92133,103.14331 4.46164,8.68017 c 0.18034,0.35085 0.0591,0.65401 -0.21343,0.77141 l -1.5848,0.68268 c -0.85909,0.37007 -1.27951,-1.16613 -2.24313,-0.3901 l -11.89829,9.58202 14.06827,-4.09613 c 1.22401,-0.35638 0.47565,-1.85989 1.56043,-2.46255 l 1.31661,-0.73146 c 0.38914,-0.21619 0.69171,-0.05 0.90213,0.36573 l 1.9993,3.94984 c 0.17675,0.34919 0.39375,0.78735 -0.12191,1.0728 l -1.36538,0.75583 c -0.91712,0.50769 -1.16391,-0.68086 -2.60884,-0.2682 l -27.9171,7.97283 c -2.62758,0.75041 -5.59239,0.11348 -6.9488,-0.90212 -1.35641,-1.0156 -2.4302,-2.33557 -2.99895,-4.02299 -0.56874,-1.68742 -0.43404,-3.13378 0.95089,-4.51062 1.38493,-1.37684 3.49001,-0.49629 4.09613,0.90212 0.60612,1.39841 0.0809,2.13944 -0.63393,2.95019 -0.71484,0.81075 -0.53148,1.72029 0.0731,2.07245 0.60458,0.35216 1.17782,0.0733 1.51167,-0.19505 l 23.72343,-19.06652 c 1.71859,-1.38123 0.3188,-1.83962 1.77987,-2.58447 l 1.24347,-0.63392 c 0.32807,-0.16725 0.6807,-0.21868 0.84762,0.10606 z"
           id="path2177"
           sodipodi:nodetypes="ssssscssssssssszzzzzzsssss"
           inkscape:label="y" />
        <path
           style="opacity:1;vector-effect:non-scaling-stroke;fill:#ffffff;fill-opacity:1;stroke:none;stroke-width:1;stroke-dasharray:none;stroke-opacity:1;-inkscape-stroke:hairline"
           d="m 309.44048,104.2802 5.54377,7.92873 c 0.14737,0.25549 0.4338,0.22826 0.76297,0.11403 l 1.54397,-1.11355 c 0.33845,-0.31445 0.29542,-0.55311 0.32104,-0.8054 l -0.0578,-0.7141 c -0.10593,-0.26173 0.0356,-0.45586 0.15092,-0.65711 L 334.8826,96.906196 c 0.81712,-0.529086 1.58883,-0.655737 2.02367,-0.138003 0.43045,0.512516 -0.32496,1.394318 -0.48061,1.949541 -0.32118,1.145794 0.002,1.959606 0.99065,2.372186 0.85238,0.35577 1.90932,0.0902 2.75712,-0.2763 1.60226,-0.69266 3.30827,-1.814713 3.9501,-3.438001 0.37563,-0.950028 0.37703,-2.293543 -0.31068,-3.048995 -0.82507,-0.906353 -2.38314,-0.77979 -3.60701,-0.713784 -1.42422,0.07681 -2.81344,0.654923 -4.08378,1.277292 l 4.51101,-3.333768 c 0.49247,-0.581452 0.41002,-0.608195 0.24321,-0.842859 l -4.24817,-5.976218 c -0.32153,-0.212391 -0.63992,-0.267275 -0.95488,-0.1505 l -1.57548,1.214848 0.0631,0.962982 c -0.0183,0.313835 -0.16314,0.694632 -0.38734,0.850711 l -20.39894,14.355192 c -0.73135,0.35542 -1.18263,0.39891 -1.43161,0.21705 -0.31086,-0.0677 -0.46994,-0.30426 -1.19726,0.0914 l -1.30315,0.95337 c -0.18072,0.11556 -0.23448,0.39601 -0.002,1.04788 z"
           id="path2174"
           sodipodi:nodetypes="ccccccccassaaaaccsccccccccccc"
           inkscape:label="r"
           inkscape:transform-center-x="2.4388428"
           inkscape:transform-center-y="2.0058263" />
        <path
           style="opacity:0.98;vector-effect:non-scaling-stroke;fill:#ffffff;fill-opacity:1;stroke:none;stroke-width:1;stroke-linecap:round;stroke-linejoin:round;stroke-dasharray:none;stroke-opacity:1;-inkscape-stroke:hairline"
           d="m 319.2923,71.768082 c -1.49123,1.034916 -15.85439,14.581786 -17.45639,16.353273 -1.60199,1.771486 0.20675,4.163499 1.92597,2.804475 1.71922,-1.359024 15.48632,-13.833086 17.57021,-16.522754 2.08389,-2.689668 -0.54856,-3.66991 -2.03979,-2.634994 z m 6.46613,8.243946 c -1.64897,4.079496 -4.45003,7.313393 -7.85132,10.148214 -2.724,2.270334 -5.73371,4.483251 -9.58374,5.191929 -8.65732,1.593559 -13.74139,-4.627295 -10.6097,-13.042501 1.10852,-2.978704 5.11758,-7.588427 7.84846,-9.955423 3.31475,-2.873077 5.61902,-4.097343 9.72175,-5.181987 7.48278,-1.978233 13.44414,5.493108 10.47455,12.839768 z"
           id="path2171"
           sodipodi:nodetypes="zzzzzsssssss"
           inkscape:label="o" />
        <path
           style="opacity:0.98;vector-effect:non-scaling-stroke;fill:#ffffff;fill-opacity:1;stroke:none;stroke-width:7.5;stroke-linecap:round;stroke-linejoin:round;stroke-dasharray:none;stroke-opacity:1;-inkscape-stroke:hairline"
           d="m 2259.4694,2525.3475 c 21.8882,-11.0475 44.1306,-14.0973 69.0473,7.0738 1.2359,1.0501 3.1477,0.8214 4.4293,-0.3089 l 12.2269,-10.7829 c 2.4642,-2.1731 1.9045,-4.6792 0.7102,-6.1076 l -28.2654,-33.8048 10.7949,-9.2324 c 1.9255,-1.6468 1.6378,-3.6656 0.426,-5.1134 l -10.9369,-13.0674 c -2.1069,-2.5173 -4.2763,-1.8498 -5.9656,-0.426 l -9.9426,8.3801 -120.7314,-148.9968 c -9.5491,-11.7847 4.6111,-19.1408 -3.1248,-28.5494 l -5.2554,-6.3917 c -1.1983,-1.4574 -2.6378,-1.0862 -3.977,0 l -44.675,36.2343 c -3.067,3.7168 -4.3014,18.1821 4.1944,28.8187 l 125.1347,156.6668 -7.244,6.5337 c -2.1468,1.9363 -0.8276,3.0272 0,3.977 z"
           id="path2168"
           inkscape:label="t"
           transform="matrix(0.13333333,0,0,-0.13333333,0,386.66667)"
           sodipodi:nodetypes="csssscsssscsssscscssc" />
        <path
           style="opacity:0.98;vector-effect:non-scaling-stroke;fill:#ffffff;fill-opacity:1;stroke:none;stroke-width:1;stroke-linecap:round;stroke-linejoin:round;stroke-dasharray:none;stroke-opacity:1;-inkscape-stroke:hairline"
           d="m 294.52039,45.135496 -2.64516,6.99218 c -0.5107,1.349984 -2.69072,-0.236729 -2.71344,-1.244304 l -0.10476,-4.644569 c -0.0602,-2.67127 -2.50221,-3.185949 -2.86116,-0.09965 -0.93336,8.02524 0.68962,17.157194 -5.10193,23.291402 -4.22809,4.478252 -8.28263,3.137949 -10.02639,-1.109115 -0.25092,-0.611131 -0.62111,-0.762816 -0.93166,-0.310552 l -0.69284,0.817443 c -1.16432,-0.612264 -2.36939,-1.081878 -1.87084,-2.25599 l 2.87426,-6.768899 c 0.52129,-1.227652 2.7238,0.459182 2.68925,1.258268 l -0.16044,3.710564 c -0.12807,2.961981 2.93568,4.534994 3.50481,0.133099 1.03852,-8.032317 -0.77022,-14.863614 4.56955,-22.271017 2.62614,-3.64302 7.96461,-3.559356 9.8933,0.665468 0.61312,1.343052 1.26053,0.959842 1.67072,0.116168 0.59151,0.284812 2.27221,0.753403 1.90673,1.7195 z"
           id="path2165"
           sodipodi:nodetypes="sssssssccssssssscss"
           inkscape:label="s" />
        <path
           style="font-variation-settings:normal;opacity:1;vector-effect:non-scaling-stroke;fill:#ffffff;fill-opacity:1;stroke:none;stroke-width:1;stroke-linecap:butt;stroke-linejoin:miter;stroke-miterlimit:4;stroke-dasharray:none;stroke-dashoffset:0;stroke-opacity:1;-inkscape-stroke:hairline;stop-color:#000000;stop-opacity:1"
           d="m 268.75486,30.130241 c -0.38397,-0.07191 -0.8299,0.02514 -1.00891,0.419133 l -0.93704,2.062551 c 0.59714,0.596365 1.0009,1.25576 0.45643,2.223903 L 256.5237,56.611495 c -0.3626,0.405174 -0.66786,0.756978 -1.12234,0.676814 -0.55988,-0.09876 -0.94527,0.354008 -1.20534,0.736915 l -0.58469,1.443168 c -0.16611,0.410013 0.0477,0.686826 0.32917,0.824016 l 8.51287,4.149136 c 0.30838,0.150302 0.68747,0.0021 0.87064,-0.321808 l 0.648,-1.145663 c 0.51999,-0.919396 0.1771,-1.319627 -0.20488,-1.644605 -0.27131,-0.230765 -0.2822,-0.441762 -0.0595,-0.892361 l 12.7264,-25.754701 c 0.23535,-0.432773 0.0152,-0.766522 -0.27998,-0.911679 z m 1.68067,-1.411276 c 0.66484,0.986699 2.75546,1.861135 3.92633,2.05269 1.17087,0.191564 2.95504,0.263281 3.80081,-0.496924 0.84583,-0.76016 1.21963,-1.438193 0.65237,-2.487361 -0.56726,-1.049161 -2.65694,-1.773326 -3.9206,-2.020239 -1.26365,-0.246913 -3.3164,-0.490325 -4.17834,0.394732 -0.86191,0.885057 -0.94542,1.570412 -0.28057,2.557102 z"
           id="path2108"
           sodipodi:nodetypes="cccscccscsssssssczzzzzzz"
           inkscape:label="i"
           inkscape:transform-center-x="0.93165605"
           inkscape:transform-center-y="-0.1774583" />
        <path
           style="opacity:0.98;vector-effect:non-scaling-stroke;fill:#ffffff;fill-opacity:1;stroke:none;stroke-width:1;stroke-linecap:round;stroke-linejoin:round;stroke-dasharray:none;stroke-opacity:1;-inkscape-stroke:hairline"
           d="m 239.13552,12.930064 10.13915,3.250179 c 0.52453,0.163031 0.70776,0.445499 0.55056,0.972118 l -0.42393,1.644543 c -0.34591,0.887744 -1.57243,0.508533 -1.75172,1.058649 l -3.99207,12.292966 3.63879,1.271809 3.95674,-12.046862 c 0.30176,-0.918751 -0.94095,-1.067964 -0.60058,-2.049027 l 0.60058,-1.731074 c 0.13,-0.374707 0.42623,-0.558289 0.84787,-0.423936 l 10.42177,3.320836 c 0.37135,0.118329 0.55805,0.375492 0.42394,0.883201 l -0.49459,1.872386 c -0.16954,0.641837 -2.15341,0.107112 -2.45515,1.024216 l -9.41507,28.616012 c -0.62785,1.908267 1.3926,1.805688 0.83036,3.727554 l -0.33577,1.147715 c -0.1174,0.401311 -0.54461,0.442171 -0.91853,0.317953 L 239.7361,54.617154 c -0.32335,-0.107419 -0.53292,-0.30494 -0.38861,-0.777217 l 0.38861,-1.27181 c 0.53079,-1.737128 1.43229,-0.07877 2.08435,-2.084354 l 4.6633,-14.343186 -3.63879,-1.307137 -4.91059,14.625809 c -0.56564,1.684715 0.99393,1.294053 0.42393,2.861572 l -0.42393,1.165825 c -0.16997,0.467417 -0.57152,0.484743 -1.05985,0.317953 l -10.03316,-3.42682 c -0.44376,-0.151566 -0.4448,-0.427437 -0.35328,-0.777217 l 0.41596,-1.589762 c 0.38503,-1.471551 1.90413,0.04425 2.50829,-1.80173 l 9.12261,-27.873826 c 0.65534,-2.161777 -1.57362,-1.212665 -0.74189,-3.956741 l 0.45927,-1.059841 c 0.24167,-0.445898 0.55103,-0.485704 0.8832,-0.388608 z"
           id="path336"
           sodipodi:nodetypes="cccccccssssssssssssssssccsssssssscccc"
           inkscape:label="H" />
        <path
           style="font-variation-settings:normal;opacity:1;vector-effect:non-scaling-stroke;fill:#ffffff;fill-opacity:1;stroke:none;stroke-width:7.5;stroke-linecap:butt;stroke-linejoin:miter;stroke-miterlimit:4;stroke-dasharray:none;stroke-dashoffset:0;stroke-opacity:1;-inkscape-stroke:hairline;stop-color:#000000;stop-opacity:1"
           d="m 1425.6238,2799.8395 62.1869,-2.5658 c 3.053,-1.126 3.3715,-3.1172 3.7266,-5.0968 l -0.6075,-20.4282 c 8.5151,11.0834 19.1728,19.5059 31.2927,22.8599 12.1199,3.354 20.7331,4.4288 32.499,0.4226 11.7659,-4.0062 19.05,-14.9678 22.3769,-23.2555 3.3269,-8.2877 3.2369,-14.6756 3.1153,-17.4325 0,0 -8.1248,-178.2986 -7.9358,-179.993 0.189,-1.6943 1.6992,-6.5845 3.8966,-7.8962 2.1974,-1.3117 4.2049,-4.9314 4.134,-6.6597 l -0.5392,-13.1397 c -0.064,-1.5518 -1.9383,-3.8829 -4.1827,-4.3171 -2.2444,-0.4342 -52.5175,1.8623 -52.5175,1.8623 -7.2054,1.6984 -10.5463,10.694 -11.3638,17.7992 l 6.9505,186.3682 c -0.4817,6.1503 -3.4545,10.4181 -11.5164,10.8397 -8.3454,0.744 -12.5741,-3.4552 -17.1045,-7.2922 l -7.7587,-172.1561 c 1.1355,-3.6444 -0.2719,-8.5452 5.1624,-10.0654 2.2765,-1.8125 4.7122,-3.5152 4.5904,-6.983 l -0.1095,-10.7996 c -1.1133,-5.4585 -3.6882,-5.8786 -6.2916,-6.2005 l -72.2517,3.1775 c -1.406,0.7529 -3.2585,1.003 -2.5167,4.1751 l 0.4747,12.2507 c 0.7817,4.2674 3.2296,4.788 5.0974,6.613 4.1609,0.5248 4.8928,5.7406 5.7289,10.8139 l 7.1461,184.775 c 0.5289,4.2933 -1.2098,7.2364 -4.0788,9.5065 -4.7724,1.1598 -4.9852,4.7827 -5.4241,8.2836 l 0.5295,9.8552 c 0.832,3.1221 2.6882,4.5265 5.2906,4.6789 z"
           id="path3362"
           sodipodi:nodetypes="cccczzzszzsszcccccccccccccccccccc"
           transform="matrix(0.13333333,0,0,-0.13333333,0,386.66667)"
           inkscape:label="n" />
        <path
           style="font-variation-settings:normal;opacity:1;vector-effect:non-scaling-stroke;fill:#ffffff;fill-opacity:1;stroke:none;stroke-width:0.75;stroke-linecap:butt;stroke-linejoin:miter;stroke-miterlimit:4;stroke-dasharray:none;stroke-dashoffset:0;stroke-opacity:1;-inkscape-stroke:hairline;stop-color:#000000;stop-opacity:1"
           d="m 137.84056,257.5174 c 0,0 0.46077,-0.27949 0.63756,-0.45673 0.17679,-0.17724 0.32293,-0.29186 0.41653,-0.58456 0.0936,-0.2927 0.21121,-0.72842 -1.2e-4,-1.12603 -0.21133,-0.39761 -0.48396,-0.59078 -1.3059,-0.88167 -0.82194,-0.29089 -2.76042,-0.56806 -3.64205,-0.31562 -0.88163,0.25244 -1.14191,0.75083 -1.47657,1.10901 -0.33466,0.35818 -0.59645,0.91773 -0.59645,0.91773 0,0 -1.63755,-2.19182 -2.69227,-2.71429 -1.05472,-0.52247 -1.99653,-0.80729 -3.21165,-0.42114 -1.21512,0.38615 -2.27343,1.13155 -3.24004,2.99292 -0.96661,1.86137 -1.39443,6.20441 -1.08312,8.10141 0.31131,1.897 0.55443,1.94321 1.48662,3.01404 0.93219,1.07083 3.13353,2.18912 4.26724,2.89705 1.13371,0.70793 2.48355,1.42187 2.48355,1.42187 l -0.50433,3.96742 c -0.0595,0.46799 -0.59309,0.93092 -1.04691,1.00062 -0.45382,0.0697 -0.93384,-0.20158 -1.23277,-0.52416 -0.29893,-0.32258 -0.33637,-0.68436 -0.416,-1.23078 -0.0796,-0.54642 0.0735,-2.01262 0.0735,-2.01262 0,0 -0.0927,-0.52872 -0.24528,-0.73846 -0.30349,-0.41714 -0.63195,-0.63398 -1.24728,-0.91613 -0.61533,-0.28215 -1.70498,-0.68431 -2.44988,-0.56422 -0.7449,0.12009 -1.27363,0.24787 -1.72039,1.0454 -0.44676,0.79753 -0.46991,2.30972 0.0122,3.47168 0.48211,1.16196 1.40044,2.1062 2.87569,2.8891 1.47525,0.7829 4.11999,1.24894 5.83959,1.11138 1.7196,-0.13756 3.13117,-0.63914 4.14246,-1.50143 1.01129,-0.86229 1.55975,-2.06953 1.73065,-3.12003 0,0 1.86292,-14.64498 2.14542,-16.83176 z m -6.39862,1.27564 -1.23825,10.43938 c 0,0 -1.45596,-1.17222 -1.64931,-1.42893 -0.19335,-0.2567 -0.48908,-0.6791 -0.57653,-1.1145 -0.0784,-0.39009 -0.0334,-1.34325 -0.0334,-1.34325 l 0.48457,-4.99977 c 0,0 0.19047,-1.6879 0.59431,-2.19754 0.40385,-0.50965 0.71465,-0.88678 1.43016,-0.77157 0.71551,0.11521 1.04792,0.91481 0.98845,1.41618 z"
           id="path3176"
           sodipodi:nodetypes="czzzzzzczzzzzzcszzzcszzzzzzzscsczsccszs"
           inkscape:label="a"
           transform="matrix(1.3333333,0,0,-1.3333333,0,386.66667)" />
        <path
           style="font-variation-settings:normal;opacity:1;vector-effect:non-scaling-stroke;fill:#ffffff;fill-opacity:1;stroke:none;stroke-width:0.75;stroke-linecap:butt;stroke-linejoin:miter;stroke-miterlimit:4;stroke-dasharray:none;stroke-dashoffset:0;stroke-opacity:1;-inkscape-stroke:hairline;stop-color:#000000;stop-opacity:1"
           d="m 105.38037,272.87267 c -0.86254,-1.29275 -1.13447,-3.01924 -1.34597,-4.56928 -0.1986,-1.65891 -0.27101,-2.79537 0.25331,-5.25503 0.52432,-2.45966 2.23292,-7.19177 3.57138,-9.15657 1.33846,-1.9648 2.04801,-2.39751 3.25572,-3.0128 1.20771,-0.61529 2.50002,-0.8457 3.62607,-0.71891 1.12605,0.12679 1.97523,0.42179 2.83276,1.26493 0.85753,0.84314 1.51319,2.46974 1.74043,3.72689 0.13547,1.35142 -0.0891,4.88688 -1.40144,4.63911 l -1.46722,-0.45022 c -0.73902,-0.8518 0.0475,-1.73147 0.16779,-2.57942 0.0983,-0.77922 0.44157,-2.29831 -0.0592,-2.98028 -0.50077,-0.68197 -1.4709,-0.83491 -1.98663,-0.66696 -0.51573,0.16795 -0.67064,0.9449 -0.67064,0.9449 l -4.86637,16.78504 c 0,0 -0.39963,1.13347 0.0219,1.60939 0.42153,0.47592 1.42733,0.84674 1.8168,-0.13317 0.38947,-0.97991 0.23164,-1.50863 0.37767,-2.10564 0.14603,-0.59701 0.10015,-0.85191 0.51798,-1.47112 0.41783,-0.61921 1.05174,-1.09918 1.64797,-1.22906 0.59623,-0.12988 1.12035,-0.0272 1.56954,0.33757 0.44919,0.3648 0.69655,0.91214 0.75849,1.7055 0.0619,0.79336 -0.15236,1.8469 -0.75503,2.80834 -0.60267,0.96144 -1.88208,2.10479 -2.94864,2.55294 -3.14674,0.94759 -5.79413,-0.7534 -6.65667,-2.04615 z"
           id="path3163"
           sodipodi:nodetypes="zczzzzzcccczzcczzzzzzzzcz"
           inkscape:label="c"
           transform="matrix(1.3333333,0,0,-1.3333333,0,386.66667)" />
        <path
           style="font-variation-settings:normal;opacity:1;vector-effect:non-scaling-stroke;fill:#ffffff;fill-opacity:1;stroke:none;stroke-width:0.75;stroke-linecap:butt;stroke-linejoin:miter;stroke-miterlimit:4;stroke-dasharray:none;stroke-dashoffset:0;stroke-opacity:1;-inkscape-stroke:hairline;stop-color:#000000;stop-opacity:1"
           d="m 89.37466,267.83332 c -0.22896,-0.1828 -0.392344,-0.48357 -0.256313,-0.77826 l 0.712101,-1.54265 c 0.63122,0.0469 1.203476,-0.0469 1.48647,-0.83041 l 7.102375,-16.76858 c 0.159045,-0.3755 0.102634,-0.75012 -0.165563,-0.96892 -0.330394,-0.26954 -0.330556,-0.73661 -0.172102,-1.0455 l 0.533032,-1.03909 c 0.151437,-0.29521 0.413381,-0.30943 0.62919,-0.21681 l 6.52694,2.80113 c 0.23645,0.10148 0.33801,0.38935 0.24384,0.65207 0,0 -0.22205,0.61951 -0.33308,0.92927 -0.2673,0.74574 -0.66257,0.74712 -1.03426,0.68944 -0.26397,-0.041 -0.38911,0.0562 -0.53589,0.40341 l -8.389422,19.84514 c -0.130451,0.34567 -0.427901,0.3841 -0.65487,0.28769 z m 0.02206,1.64581 c 0.886031,-0.1059 2.406873,0.65282 3.089317,1.22384 0.682445,0.57102 1.597324,1.54902 1.58003,2.40175 -0.01729,0.85273 -0.219121,1.3972 -1.092815,1.58912 -0.873694,0.19192 -2.308742,-0.63989 -3.068081,-1.23648 -0.759339,-0.59659 -1.903302,-1.64298 -1.823024,-2.56605 0.08028,-0.92307 0.428541,-1.30628 1.314573,-1.41218 z"
           id="path3123"
           sodipodi:nodetypes="cccssssscsssssssczzzzzzz"
           inkscape:label="i"
           transform="matrix(1.3333333,0,0,-1.3333333,0,386.66667)" />
        <path
           style="opacity:1;vector-effect:non-scaling-stroke;fill:#ffffff;fill-opacity:1;stroke:none;stroke-width:0.75;stroke-dasharray:none;stroke-opacity:1;-inkscape-stroke:hairline"
           d="m 87.007142,238.16178 6.332775,3.54187 c 0.193069,0.10798 0.273242,0.33462 0.142358,0.5608 l -0.715088,1.23574 c -0.173541,0.2999 -0.386769,0.2963 -0.576922,0.30002 l -0.537218,0.0105 c -0.211728,0.004 -0.393434,0.0105 -0.479032,0.16194 l -7.760085,13.72842 c -0.333496,0.64947 -0.370089,1.23485 0.0489,1.52048 0.414765,0.28276 1.0161,-0.34714 1.418748,-0.50496 0.830923,-0.32568 1.462492,-0.14543 1.844554,0.56122 0.329465,0.60937 0.210619,1.41802 7.5e-4,2.07819 -0.396629,1.24765 -1.105905,2.60495 -2.269087,3.20574 -0.680752,0.35161 -1.683223,0.45349 -2.298585,-0.003 -0.738279,-0.54767 -0.760774,-1.71986 -0.80337,-2.63811 -0.04957,-1.06857 0.277569,-2.14864 0.646657,-3.14333 l -2.149207,3.61649 c -0.396935,0.41114 -0.423083,0.35162 -0.610718,0.24475 l -4.778502,-2.7216 c -0.25113,-0.14303 -0.317083,-0.48736 -0.18398,-0.70126 l 0.788317,-1.26686 0.723348,-0.0252 c 0.235631,-0.008 0.505207,-0.17438 0.60576,-0.35289 l 9.181327,-16.29982 c 0.299302,-0.53136 0.169339,-0.88388 0.05453,-1.0846 -0.11847,-0.20713 -0.336333,-0.36496 -0.02168,-0.9003 l 0.613635,-1.04401 c 0.08153,-0.13871 0.252767,-0.36822 0.781815,-0.0802 z"
           id="path3057"
           sodipodi:nodetypes="csssssscassaaaaccssscsssssscc"
           inkscape:label="r"
           transform="matrix(1.3333333,0,0,-1.3333333,0,386.66667)" />
        <path
           style="opacity:1;vector-effect:non-scaling-stroke;fill:#ffffff;fill-opacity:1;stroke:none;stroke-width:0.75;stroke-dasharray:none;stroke-opacity:1;-inkscape-stroke:hairline"
           d="m 69.836952,241.80073 4.954047,-6.41422 c 0,0 0.552552,-0.63696 1.019738,-0.83685 0.467186,-0.19989 1.205728,-0.36075 1.71702,-0.2094 0.511292,0.15135 0.879854,0.54803 1.12689,0.94331 0.247036,0.39528 0.288284,0.82959 0.319733,1.28804 0.03145,0.45845 -0.01218,0.92652 -0.15177,1.42196 -0.139591,0.49544 -0.454292,1.06003 -0.710753,1.4983 -0.256461,0.43827 -0.600467,0.85707 -0.802132,1.13328 -0.201665,0.27621 -0.143456,0.71331 0.04873,0.85804 l 1.425152,1.12458 c 0,0 0.515456,0.21072 0.789208,-0.0556 l 5e-6,1e-5 c 0.909757,-0.62701 2.124246,-3.39037 2.052796,-5.04765 -0.08435,-1.95653 -0.300513,-2.70567 -1.032316,-3.73506 -0.748859,-1.05338 -1.802905,-1.94018 -3.0819,-2.43504 -1.278995,-0.49486 -2.687601,-0.61025 -4.290122,-0.29934 -1.602521,0.31091 -3.269525,1.13132 -4.939919,2.40412 -1.670394,1.2728 -3.511418,3.58345 -4.693814,5.33571 -1.182396,1.75226 -2.050647,3.43031 -2.504341,4.9829 -0.453694,1.55259 -0.600235,2.82753 -0.424003,4.10648 0.176232,1.27895 0.463793,2.32347 1.331031,3.36416 0.867238,1.04069 2.168727,2.02864 3.82584,2.38838 1.657113,0.35974 3.706482,-0.28115 5.072978,-1.21101 1.366496,-0.92986 2.637795,-2.18627 3.518195,-3.10004 0.8804,-0.91377 1.746028,-1.72436 1.850305,-2.26437 0.0374,-0.19369 -0.0579,-0.37121 -0.0579,-0.37121 -2.350149,-1.79861 -4.155765,-3.18048 -6.362698,-4.86948 z m -1.246472,1.92961 1.669553,1.27761 c 0.111304,0.0747 0.05673,0.22103 0.0076,0.36503 l -3.966864,5.06499 c -0.36458,0.41029 -0.866806,0.45498 -1.265648,0.38827 -0.398842,-0.0667 -0.5978,-0.31416 -0.737924,-0.65135 -0.140124,-0.33719 -0.208472,-0.77796 0,-1.06271 l 3.842304,-5.24825 c 0.170307,-0.2104 0.31599,-0.21638 0.450979,-0.13359 z"
           id="path2884"
           sodipodi:nodetypes="sccczzzzzzzccsszzzzzzzzzzzzscccczzscc"
           inkscape:label="e"
           transform="matrix(1.3333333,0,0,-1.3333333,0,386.66667)" />
        <path
           style="opacity:1;vector-effect:non-scaling-stroke;fill:#ffffff;fill-opacity:1;stroke:none;stroke-width:1;stroke-dasharray:none;stroke-opacity:1;-inkscape-stroke:hairline"
           d="m 71.71408,110.46187 6.5183,-7.56282 v 0 c 0.212914,-0.24781 0.124847,-0.40424 0.01498,-0.5172 l -1.382511,-1.42139 c -0.339514,-0.34906 -0.816949,-0.0156 -1.363053,-0.0425 -0.310665,-0.0153 -0.676653,0.005 -0.911753,-0.19858 L 57.19045,85.64703 c -0.385334,-0.333794 -0.267244,-1.230806 0.723783,-2.451151 0.3227,-0.397371 0.94457,-0.701081 1.606214,-0.134146 l 18.699188,16.022545 c 0.6991,0.351831 1.105912,0.86183 2.802174,0.67406 l 4.708918,-5.41944 c 0.156312,-0.243835 0.167547,-0.550922 0.04646,-0.915701 l -1.37595,-1.316359 c -0.42984,-0.134952 -0.886308,-0.234395 -1.557807,-0.0471 -0.0844,8.62e-4 -0.165152,0.0038 -0.425305,-0.09412 L 65.221114,77.139997 c -0.576898,-0.497347 -0.906318,-1.332993 -0.107849,-2.331964 0.199945,-0.250153 0.387917,-0.491659 0.689302,-0.720636 0.33018,-0.250855 0.956634,-0.502159 1.566697,0.02353 l 18.645268,16.066565 c 0.958199,0.581151 2.104628,1.383739 2.903188,0.475412 l 4.557849,-5.184353 c 0.286972,-0.326419 0.420093,-0.725571 0.09714,-1.019183 L 92.213154,83.213334 C 91.808922,82.845828 91.320022,82.618549 90.255453,82.928955 L 71.027765,66.587885 c -1.899358,-1.317106 -4.171655,-1.5217 -5.875752,-0.151184 -1.704097,1.370516 -1.95343,2.386677 -2.358915,3.968256 -0.337098,1.490717 -0.293441,2.981434 -0.233027,4.472151 -0.921775,-0.201487 -1.836682,-0.27998 -2.594546,-0.253205 -1.09865,0.03881 -1.989281,0.356549 -3.110813,1.323128 -1.89518,1.633339 -2.442241,3.894018 -1.94163,7.808459 l -1.876589,-1.69864 c -0.311082,-0.360735 -0.630925,-0.276705 -0.953173,-0.07059 0,0 -5.373286,6.083832 -5.443731,6.267575 -0.07044,0.183742 -0.212858,0.70287 0.04482,0.884723 l 1.173012,1.068397 c 0.34345,0.388493 0.761545,0.189788 1.169724,0.06909 0.331415,-0.03767 0.616522,-0.200507 1.06842,0.08748 l 18.934374,16.368265 c 0.264243,0.22843 0.412883,0.54544 0.490481,0.90424 0.14565,0.67345 -0.336383,1.06447 0.488921,1.7664 l 1.058247,0.90005 c 0.21995,0.22198 0.489053,0.34206 0.646492,0.15939 z"
           id="path2647"
           sodipodi:nodetypes="sccssssssscccccccsssscsssscczccssccczccccssscs"
           inkscape:label="m" />
        <path
           style="display:inline;opacity:1;vector-effect:non-scaling-stroke;fill:#ffffff;fill-opacity:1;stroke:none;stroke-width:1;stroke-dasharray:none;stroke-opacity:1;-inkscape-stroke:hairline"
           d="m 55.219579,123.5881 2.791139,2.23105 c 0.417653,0.35259 0.811782,0.45615 1.284158,0.28492 l 1.172509,-0.78801 c 0.315409,-0.13683 0.624123,-0.19219 0.911682,0.01 l 1.352795,0.86434 c 0.440814,0.28165 0.380465,0.52171 0.259563,0.74236 l -3.196957,5.83455 c -0.296055,0.54031 -0.97844,0.19219 -1.318002,-0.11519 l -1.261522,-1.14198 c -0.513454,-0.4648 0.203553,-1.29168 -0.774587,-2.05747 L 32.245039,110.51016 c -0.308032,-0.1977 -0.67264,-0.24885 -1.233239,-0.0655 -0.700271,0.43423 -0.906917,0.69335 -1.71579,0.33482 -1.11104,-0.73601 -2.047359,-0.98631 -1.686745,-1.74107 l 4.888536,-8.81724 c 0.240691,-0.434123 0.63015,-0.601757 1.671312,-0.21806 l 30.784225,11.34483 0.911288,0.23128 c 0.469509,0.10703 0.747233,0.15508 1.279774,0.0583 0.586421,-0.10657 1.20045,-0.44726 1.348483,-0.3398 0.87506,0.37906 1.393404,0.63107 1.895216,1.29442 0.20729,0.33697 0.152787,0.5393 -0.04869,0.99793 h 2e-6 c 0,0 -3.416194,6.23184 -5.124306,9.34775 -0.253856,0.46308 -0.645634,0.34276 -0.889489,0.19994 -0.465212,-0.27246 -1.395635,-0.81739 -1.395635,-0.81739 -0.178782,-0.10471 -0.244431,-0.30506 -0.272931,-0.60275 l -0.100729,-1.05214 c -0.07294,-0.76193 -0.20307,-0.81879 -0.639356,-0.98269 -1.240271,-0.46593 -3.720811,-1.39781 -3.720811,-1.39781 z m -2.375386,-1.78306 2.587429,-4.58618 -17.49634,-6.75654 z"
           id="path2267"
           sodipodi:nodetypes="cccccssssssccccssccccsccsssssscccccc"
           inkscape:label="A" />
      </g>
    </g>
  </g>
</svg>
