<svg xmlns="http://www.w3.org/2000/svg" width="386.667" height="386.667" xmlns:v="https://vecta.io/nano"><style><![CDATA[.B{fill:#193048}.C{opacity:.98}.D{fill:#d3d2d2}.E{fill:#db2943}]]></style><defs><clipPath id="A"><path d="M1147.19 467.129l-29.15 9.461c8.75-.86 17.62-1.551 26.62-2.078l2.53-7.383M1107 584.621l-1.35.34-70.7 18.48c-22.23 6.7-55.63 18-76.981 26.559-2.719 1.082-5.668 2.07-8.789 3.051l-3.91 193.808-1.071 50.039-21.195-45.339c-3.277-7.321-4.16-13.84-6.777-21.848-2.196-6.879-5.36-14.871-11.414-24.602-5.141-.179-11.204-.277-17.918-.277h-.055c-25.266 0-59.781 1.309-91.813 3.918-16.015 1.309-31.425 2.941-44.699 4.871-8.101 1.18-15.445 2.488-21.539 3.859l38.262 195.629c3.996 20.471 8.144 40.961 14.398 59.971 6.254 19.04 14.559 36.51 26.696 51.39 15.671 19.23 36.8 33.06 60.976 43.58 24.149 10.52 51.195 17.62 77.871 23.52 46.371 10.28 92.628 17.64 139.068 23.15 35.39-32.79 82.81-52.94 134.88-52.93 61.59 0 116.57 28.17 152.94 72.14 28.46 2.17 56.82 4.28 84.58 4.28h.05c51.88-.01 101.27-7.3 146.54-34.33h0c39.53-23.49 86.95-72.14 131.62-123.93 30.21-34.95 59.33-71.302 84.87-102.618l-174.04-63.031c-9.69 7.777-18.99 15.519-27.41 23.25l-22.03 20.179 2.49-29.769 2.51-29.75c-31.11-11.629-49.48-43.57-44.26-76.051l-.08-.031-.16.73c-6.76 31.832-34.63 54.762-67.17 55.262l-392.27 6.188-40.41-40.879-16.8.718c-.17.012-.34.012-.5.012-3.68 0-7.14-1.73-9.36-4.691-2.31-3.098-2.95-7.117-1.7-10.778l76.65-224.07"/></clipPath><linearGradient x1="0" y1="0" x2="1" y2="0" gradientUnits="userSpaceOnUse" gradientTransform="matrix(851.795,714.741,714.741,-851.795,860.555,392.71)" spreadMethod="pad" id="B"><stop offset="0" stop-color="#d3d2d2"/><stop offset=".67" stop-color="#d3d2d2"/><stop offset="1" stop-color="#fff"/></linearGradient><clipPath id="C"><path d="M1500.15 2183.67l94.97-264.1c39.3-122.02 47.17-254.4 8.29-377.54-30.85-97.68-89.74-202.55-182.85-255.3-61.57-34.88-135.94-44.83-206.54-35.81-153.83 19.66-286.543 114.1-366.536 241.59-7.011 11.17-46.132 22.71-51.441 34.55-6.934 15.45-19.121 31.4-23.617 47.7-4.289 15.55 25.429 31.42 22.887 47.48-9.086 57.41-1.864 117.26-1.973 173.55l16.461 174.72"/></clipPath><linearGradient x1="0" y1="0" x2="1" y2="0" gradientUnits="userSpaceOnUse" gradientTransform="matrix(750.548,201.109,206.224,-731.932,779.906,1548.21)" spreadMethod="pad" id="D"><stop offset="0" stop-color="#a7a5a6"/><stop offset=".569" stop-color="#a7a5a6"/><stop offset="1" stop-color="#fff"/></linearGradient><clipPath id="E"><path d="M715.227 789.012c38.91-12.59 155.175-17.653 196.097-15.301"/></clipPath><linearGradient x1="0" y1="0" x2="1" y2="0" gradientUnits="userSpaceOnUse" gradientTransform="matrix(107.539,90.2358,90.2358,-107.539,759.507,736.24)" spreadMethod="pad" id="F"><stop offset="0" stop-color="#d3d2d2"/><stop offset=".67" stop-color="#d3d2d2"/><stop offset="1" stop-color="#fff"/></linearGradient><clipPath id="G"><path d="M1558.8 802.16c-5.22 32.481 13.15 64.422 44.26 76.051.01 0 .01.008.02.008l44.42 16.082 174.04 63.031 23.29 8.438 14.16 5.121 23.05-2.879 17.9-2.231 26.99-3.383L1558.8 802.16"/></clipPath><linearGradient x1="0" y1="0" x2="1" y2="0" gradientUnits="userSpaceOnUse" gradientTransform="matrix(364.33,210.346,210.346,-364.33,1561.77,794.56)" spreadMethod="pad" id="H"><stop offset="0" stop-color="#a7a5a6"/><stop offset=".638" stop-color="#fff"/></linearGradient></defs><g transform="matrix(.133333 0 0 -.133333 0 386.66667)"><path d="M2503.324 1435.786c0 582.17-470.883 1054.109-1051.752 1054.109S399.815 2017.956 399.815 1435.786 870.705 381.676 1451.572 381.676s1051.752 471.937 1051.752 1054.109" class="E"/><path d="M2148.47 1804.2c-12.58 112.76-91.7 199.58-195.96 242.61-4.62 1.91-24.48 9.36-39.08 14.51-4.19 1.48-8.82-2.53-6.99-6.49 23.86-51.76 23.59-100.43-10.08-147.49-34.18-47.77-66.33-97.23-56.37-158.33 8.39-51.46 44.5-96.14 93.73-116.32 1.24-.51 2.5-.95 3.75-1.43-19.59 16.5-31.55 40.9-31.73 66.41-.27 35.96 22.64 61.65 46.55 86.2 23.56 24.18 28.06 52.13 18.98 83.9-.7 2.43 2.32 4.34 4.6 3.14 7.93-4.2 18.67-10.17 21.16-11.66 56.07-33.6 93.77-90.22 90.92-156.09-1.04-23.88-8.19-47.25-24.75-64.74-1.03-1.08-2.1-2.12-3.17-3.14 25.33 11.54 47.51 29.58 63.47 52.58 23.55 33.91 29.53 75.46 24.97 116.34" fill="#fff"/><path d="M2057.26 343.582h-126.48l-62.21 974.488h250.89l-62.2-974.488" class="B"/><path d="M2057.26 343.582v8.859h-118.17l-61.08 956.769h232.01l-61.6-965.062 8.84-.566v8.859-8.859l8.84-.562 62.8 983.91h-269.77l63.34-992.2h143.1l.53 8.29-8.84.562" class="E"/><path d="M2153.41 1377.61h-318.78l-66.41 220.08h451.6l-66.41-220.08m-5.27-125.95H1839.9l21.09 115.34h266.05l21.1-115.34" class="B"/><path d="M2148.14 1251.66v8.86h-297.62l17.85 97.63h251.29l19.76-108.08 8.72 1.59v8.86-8.86l8.71 1.59-22.42 122.61H1853.6l-24.33-133.06h329.49l-1.91 10.45-8.71-1.59" class="E"/><path d="M1152.01 1137.07c-2.04 74.72-14.48 149.16-36.87 220.65l152.1 47.42c16.17-84.61 23.65-170.8 22.29-256.85" fill="#918f90"/><path d="M1163.69 1137.38c-2.07 75.81-14.68 151.31-37.4 223.83l-11.15-3.49 3.48-11.16 152.1 47.42-3.48 11.16-11.48-2.2c14.79-77.38 22.24-156.11 22.24-234.83l-.15-19.64 23.37-.37.15 20.01a1275.73 1275.73 0 0 1-22.65 239.22l-2.46 12.86-175.77-54.8 3.5-11.16c22.07-70.46 34.33-143.85 36.34-217.48l23.36.63" class="B"/><g clip-path="url(#A)"><path d="M1147.19 467.129l-29.15 9.461c8.75-.86 17.62-1.551 26.62-2.078l2.53-7.383M1107 584.621l-1.35.34-70.7 18.48c-22.23 6.7-55.63 18-76.981 26.559-2.719 1.082-5.668 2.07-8.789 3.051l-3.91 193.808-1.071 50.039-21.195-45.339c-3.277-7.321-4.16-13.84-6.777-21.848-2.196-6.879-5.36-14.871-11.414-24.602-5.141-.179-11.204-.277-17.918-.277h-.055c-25.266 0-59.781 1.309-91.813 3.918-16.015 1.309-31.425 2.941-44.699 4.871-8.101 1.18-15.445 2.488-21.539 3.859l38.262 195.629c3.996 20.471 8.144 40.961 14.398 59.971 6.254 19.04 14.559 36.51 26.696 51.39 15.671 19.23 36.8 33.06 60.976 43.58 24.149 10.52 51.195 17.62 77.871 23.52 46.371 10.28 92.628 17.64 139.068 23.15 35.39-32.79 82.81-52.94 134.88-52.93 61.59 0 116.57 28.17 152.94 72.14 28.46 2.17 56.82 4.28 84.58 4.28h.05c51.88-.01 101.27-7.3 146.54-34.33h0c39.53-23.49 86.95-72.14 131.62-123.93 30.21-34.95 59.33-71.302 84.87-102.618l-174.04-63.031c-9.69 7.777-18.99 15.519-27.41 23.25l-22.03 20.179 2.49-29.769 2.51-29.75c-31.11-11.629-49.48-43.57-44.26-76.051l-.08-.031-.16.73c-6.76 31.832-34.63 54.762-67.17 55.262l-392.27 6.188-40.41-40.879-16.8.718c-.17.012-.34.012-.5.012-3.68 0-7.14-1.73-9.36-4.691-2.31-3.098-2.95-7.117-1.7-10.778l76.65-224.07" fill="url(#B)"/></g><path d="M1611.05 1193.91l5.99 10.03c-50.29 30.04-104.61 37.65-158.53 37.64-30.66 0-61.32-2.44-91.45-4.74l-5.13-.39-3.18-4.04c-32.13-40.92-81.8-67.25-137.81-67.25-47.78.01-90.95 19.14-122.61 50.15l-3.98 3.9-5.54-.63c-48.89-5.65-97.755-13.31-146.876-24.19-27.258-6.05-55.688-13.41-82.137-24.91-26.418-11.5-51.008-27.25-69.766-50.24-14.515-17.81-23.953-38.07-30.785-58.86-6.828-20.81-11.105-42.23-15.133-62.79l-40.355-206.34-1.988-10.168 9.859-3.191c9.332-3 21.344-5.34 35.332-7.391 41.82-6.078 100.809-9.02 139.879-9.039 9.801 0 18.336.187 25.152.578l5.738.332 3.243 4.738c9.523 13.911 14.511 25.973 17.531 35.532 2.945 9.519 4.359 16.531 5.668 19.019l-10.586 4.949-11.68-.25 10.633-533.609.254-11.82 11.816.39c55.721 1.84 111.891 2.481 168.311 2.481l384.4-3.27c56.6 0 113.03.641 169.1 2.489l12.29.402-1.03 12.25-53.84 614.238-11.64-.98-7.9-8.621c29.66-27.11 67.05-52.7 94.89-78.258l5.41-4.961 6.82 2.73c29.28 11.711 59.95 24.231 88.25 39.551 28.28 15.348 54.31 33.508 73.92 57.008l6.34 7.609-6.47 7.5c-31.21 36.16-73.8 91.322-119.11 143.742-45.43 52.47-93.24 102.27-137.31 128.71l-5.99-10.03-6-10.03c39.53-23.49 86.95-72.14 131.62-123.93 44.8-51.82 87.19-106.731 119.09-143.72l8.85 7.629-8.98 7.481c-16.79-20.18-40.32-36.93-67.09-51.418-26.76-14.5-56.65-26.75-85.8-38.402l4.34-10.848 7.89 8.617c-29.65 27.109-67.04 52.699-94.88 78.262l-22.03 20.179 2.49-29.769 53.84-614.242 11.64.98-.38 11.68c-55.73-1.84-111.9-2.481-168.33-2.481l-384.4 3.274c-56.59 0-113.018-.641-169.08-2.492l.383-11.68 11.683.25-10.636 533.609-1.071 50.039-21.195-45.339c-3.277-7.321-4.16-13.84-6.777-21.848-2.547-7.981-6.399-17.461-14.547-29.41l9.644-6.59-.668 11.66c-6.133-.351-14.328-.539-23.816-.539-25.266 0-59.781 1.309-91.813 3.918-16.015 1.309-31.425 2.941-44.699 4.871-13.242 1.918-24.457 4.211-31.504 6.508l-3.597-11.117 11.468-2.242 40.356 206.339c3.996 20.471 8.144 40.961 14.398 59.971 6.254 19.04 14.559 36.51 26.696 51.39 15.671 19.23 36.8 33.06 60.976 43.58 24.149 10.52 51.195 17.62 77.871 23.52 48.18 10.68 96.238 18.21 144.498 23.79l-1.34 11.61-8.18-8.35c35.78-35.09 84.87-56.84 138.97-56.83 63.45-.01 119.9 29.9 156.2 76.19l-9.19 7.21.89-11.65c30.17 2.31 60.26 4.67 89.67 4.67 51.88-.01 101.27-7.29 146.55-34.33l5.99 10.03" class="B"/><path d="M1587.27 391.98c137.17 111.43 214.78 185.071 334.42 314.301 18.06 19.508 37.21 44.668 28.7 69.61-3.98 11.691-13.47 20.668-22.63 29.16-53.71 49.758-79.21 47.519-132.91 97.281l-82.26-29.961c40.93-39.211 42.59-52.762 70.9-86.562 2.97-3.539 6.88-7.039 6.68-11.61-.14-3.078-1.99-5.801-3.79-8.328-82.1-115.59-124.29-188.519-227.1-287.109l27.99-86.782" class="D"/><g class="B"><path d="M1594.76 382.75c137.45 111.641 215.84 186.02 335.65 315.461 7.77 8.391 15.97 18 22.48 28.769 6.47 10.739 11.44 22.891 11.47 36.309.01 5.41-.85 10.973-2.72 16.441-2.63 7.711-6.92 14.11-11.54 19.602-4.63 5.488-9.66 10.156-14.27 14.438-27.57 25.582-48.63 38.261-68.41 50.109-19.82 11.91-38.36 22.992-64.5 47.172l-5.32 4.937L1690.58 877l13.79-13.211c20.05-19.23 29.98-31.59 38.78-43.707 8.77-12.094 16.63-24.48 31.23-41.91 1.85-2.172 3.3-3.723 3.86-4.543l.27-.418.03-.051 1.56.801-1.68-.449.12-.352 1.56.801-1.68-.449 3.77 1.019h-3.9l.13-1.019 3.77 1.019h-3.9 4.14l-4.14.18v-.18h4.14l-4.14.18 2.81-.121-2.7.82-.11-.699 2.81-.121-2.7.82.53-.16-.52.199-.01-.039.53-.16-.52.199c.01-.058-.58-1.129-1.72-2.687l-105.61-149.703c-33.39-44.629-69.1-86.868-120.03-135.719l16.45-17.16c51.88 49.742 88.67 93.25 122.61 138.64 33.96 45.399 65.04 92.559 105.96 150.168.94 1.344 2.19 3.071 3.41 5.434 1.19 2.34 2.39 5.449 2.56 9.258l.02.851c-.02 5.758-2.47 10.11-4.46 12.899-2.06 2.84-3.96 4.73-5 6.011-13.71 16.368-20.84 27.661-30.2 40.59-9.35 12.918-20.71 26.938-41.58 46.918l-8.23-8.578 4.07-11.172 82.25 29.973-4.06 11.16-8.08-8.711c27.57-25.59 48.63-38.262 68.42-50.121 19.81-11.898 38.35-22.988 64.49-47.168 4.55-4.211 8.85-8.273 12.24-12.312 3.42-4.051 5.87-7.989 7.23-11.969 1-2.942 1.44-5.801 1.44-8.762.04-7.238-2.88-15.488-8.05-24.027-5.13-8.512-12.32-17.082-19.57-24.91-119.46-129.012-196.3-201.922-333.2-313.153l14.99-18.449"/><path d="M1447.724 2891.871c-387.31 0-751.437-150.82-1025.305-424.7-273.871-273.86-424.695-637.99-424.695-1025.3S148.548 690.43 422.419 416.562C696.287 142.703 1060.414-8.129 1447.724-8.129s751.44 150.832 1025.31 424.691c273.86 273.868 424.69 637.999 424.69 1025.309s-150.83 751.44-424.69 1025.3c-273.87 273.88-638 424.7-1025.31 424.7m0-421.82c567.85 0 1028.18-460.33 1028.18-1028.18s-460.33-1028.18-1028.18-1028.18S419.54 874.019 419.54 1441.871s460.336 1028.18 1028.184 1028.18M864.086 1517.4c-5.578-1.6-11.688-2.53-18.414-2.53-16.254 0-29.09 5.13-38.617 13.2-41.039 28.91-29.34 108.66 34.957 108.66 3.824 0 7.406-.36 10.855-.89 1.262.06 2.485.18 3.785.18 76.078 0 78.434-111.35 7.434-118.62zm105.203 125.78c-19.004 21.16-41.617 39.33-67.012 52.66-60.859 31.96-132.89 34.38-201.992 36.08l-25.797-67.8c28.828-43.49 49.95-91.39 77.032-135.94s61.593-86.89 108.726-110.75c38.27-19.37 83.555-25.23 125.68-16.25 10.133 2.16 20.344 5.28 28.474 11.56 16.89 13.06 20.9 36.35 21.03 57.37.41 62.94-23.61 125.73-66.141 173.07"/></g><g clip-path="url(#C)"><path d="M1500.15 2183.67l94.97-264.1c39.3-122.02 47.17-254.4 8.29-377.54-30.85-97.68-89.74-202.55-182.85-255.3-61.57-34.88-135.94-44.83-206.54-35.81-153.83 19.66-286.543 114.1-366.536 241.59-7.011 11.17-46.132 22.71-51.441 34.55-6.934 15.45-19.121 31.4-23.617 47.7-4.289 15.55 25.429 31.42 22.887 47.48-9.086 57.41-1.864 117.26-1.973 173.55l16.461 174.72" fill="url(#D)"/></g><g class="B"><path d="M1489.16 2179.72l94.96-264.1 11 3.95-11.13-3.58c21.33-66.2 33.22-135.41 33.22-204.33 0-56.13-7.88-112.07-24.95-166.11-15.13-47.96-37.18-97.64-66.63-141.51-29.46-43.9-66.26-81.91-110.83-107.15-45.35-25.7-98.41-37.43-151.78-37.43-15.89 0-31.8 1.04-47.52 3.05-149.93 19.12-279.812 111.39-358.117 236.21-1.957 3.07-4.223 5.18-6.582 7.1-4.137 3.31-8.805 5.98-13.731 8.64l-21.422 11.2c-3.046 1.73-5.617 3.4-7.242 4.71l-1.656 1.52-.203.25-1.637-1.1 1.793.8-.156.3-1.637-1.1 1.793.8c-3.906 8.67-8.859 16.74-13.195 24.48-4.36 7.71-8.051 15.06-9.817 21.55l-.003.04c-.055.09.23 1.69 1.878 4.26 2.372 3.86 7.114 9.05 11.707 14.91 2.297 2.97 4.582 6.17 6.473 9.91 1.863 3.72 3.399 8.15 3.406 13.27a23.78 23.78 0 0 1-.297 3.81c-3.386 21.39-4.449 43.38-4.449 65.64-.008 34.77 2.61 70.13 2.621 104.82l-.004 1.29-11.683-.03 11.633-1.09 16.461 174.72-23.266 2.19-16.516-175.28v-.56l.004-1.24c.008-33.51-2.609-68.91-2.621-104.82.004-22.99 1.086-46.21 4.738-69.29l.008-.16c.051-.29-.273-1.94-1.914-4.55-2.367-3.91-7.07-9.08-11.644-14.86-2.285-2.94-4.563-6.09-6.461-9.77-1.867-3.67-3.43-8.05-3.446-13.17a23.76 23.76 0 0 1 .844-6.26c2.731-9.81 7.383-18.59 11.977-26.79 4.613-8.18 9.218-15.81 12.242-22.59 1.648-3.6 3.887-6.07 6.18-8.22 4.05-3.7 8.652-6.51 13.558-9.29 7.328-4.09 15.375-7.88 21.844-11.4 3.219-1.75 6.023-3.43 7.969-4.82.968-.69 1.715-1.31 2.172-1.75l.461-.48.066-.07.785.58-.828-.52.043-.06.785.58-.828-.52c81.68-130.16 217.224-226.78 374.954-246.97 16.68-2.14 33.57-3.24 50.48-3.24 56.75.01 113.77 12.42 163.3 40.47 48.54 27.51 87.74 68.31 118.72 114.46 30.97 46.17 53.8 97.76 69.51 147.49 17.84 56.5 26.03 114.83 26.03 173.15 0 71.61-12.34 143.19-34.34 211.49l-.06.19-95.03 264.29-21.99-7.91m-396.7-718.61c47.01-44.04 106.05-70.26 167.27-70.27a212.62 212.62 0 0 1 45.11 4.84c71.59 15.52 127.35 66.2 158.04 133.16a11.69 11.69 0 0 1-5.74 15.49c-5.87 2.7-12.8.13-15.5-5.74-28.27-61.42-78.23-106.27-141.76-120.07-13.39-2.91-26.8-4.31-40.15-4.31-54.43-.01-107.96 23.38-151.29 63.96-4.71 4.41-12.11 4.17-16.52-.54s-4.17-12.11.54-16.52m70.12 220.21c0 21.84-17.7 39.55-39.54 39.55s-39.55-17.71-39.55-39.55 17.71-39.54 39.55-39.54 39.54 17.7 39.54 39.54"/><path d="M1429.21 1715.86c0 21.84-17.7 39.54-39.54 39.54s-39.55-17.7-39.55-39.54 17.71-39.55 39.55-39.55 39.54 17.71 39.54 39.55m-612.511-71.24c-27.164-18.34-41.23-45.9-41.246-72.05-.07-19.75 8.344-39.1 25.102-51.29 13.922-10.05 33.777-18.25 54.824-18.38 7.445 0 15.055 1.1 22.406 3.78 7.344 2.67 14.406 6.96 20.469 13.03 4.566 4.56 4.574 11.96.016 16.52a11.69 11.69 0 0 1-16.528.02c-3.609-3.6-7.562-6-11.961-7.61-4.39-1.6-9.254-2.37-14.402-2.37-14.5-.12-31.16 6.54-41.035 13.88-10.199 7.5-15.446 18.93-15.52 32.42-.011 17.72 9.707 38.33 30.957 52.68a11.7 11.7 0 0 1 3.145 16.23 11.7 11.7 0 0 1-16.227 3.14"/><path d="M1290.61 1624.78c4.91-2.76 10.29-7.66 14.92-13.46 4.65-5.78 8.59-12.44 11.12-18.31 2.82-6.52 4.38-13.72 4.37-20.6 0-5.96-1.14-11.66-3.48-16.72-2.57-5.56-6.63-10.52-11.81-14.77-5.17-4.24-11.44-7.7-18.02-10.13-6.98-2.6-15.07-4.19-22.74-4.18-5.43-.01-10.65.78-15.22 2.38-4.59 1.6-8.54 3.95-11.86 7.26a11.68 11.68 0 0 1-16.52-.02c-4.56-4.56-4.55-11.96.01-16.52 6.04-6.03 13.22-10.21 20.69-12.8 7.48-2.6 15.26-3.67 22.9-3.68 10.81.02 21.39 2.14 30.86 5.64 8.74 3.25 17.23 7.85 24.71 13.97 7.46 6.1 13.93 13.78 18.21 23.05 3.92 8.49 5.64 17.58 5.64 26.52 0 10.35-2.27 20.54-6.29 29.86-3.44 7.96-8.33 16.16-14.35 23.67-6.03 7.5-13.16 14.33-21.57 19.15-5.61 3.2-12.74 1.24-15.94-4.37-3.19-5.6-1.24-12.74 4.37-15.94m-650.883 230.87c9.214 48.35 23.144 97.42 54.117 136.23s82.386 65.39 131.801 55.58c-5.614 1.11-.692 40.09-.207 45.08 2.41 24.73 8.039 48.75 18.296 71.45 31.223 69.12 101.18 108.58 167.736 138.18 61.01 27.13 124.89 48.74 190.99 58.25 84.26 12.12 169.73 1.3 248.64-30.42 38.26-15.37 74.43-36.77 104.15-65.56 60.58-58.69 88.73-143.35 94.04-226.47 5.31-83.11-10.03-166.02-25.32-247.96-53.51 92.03-137.97 166.62-237.17 209.45 18.4-27.31 27.62-60.41 25.92-93.05-58.79-7.43-119.09-3.28-176.23 12.14 24.04-28.49 37.97-64.94 38.9-101.82-126.56 9.65-250.92 45.94-362.117 105.67l-1.894-181.53c-.547-52.43-5.297-113.11-49.281-143.28-50.328-34.51-145.621-11.25-186.641 29.33-55.914 55.32-48.91 159.56-35.73 228.73"/></g><path d="M764.273 774.551c-1.289-22.801-3.925-33.801-4.839-56.641-1.239-30.988-6.77-69.93 7.929-98.449 13.75-26.68 46.039-43.289 72.969-53.68 156.305-60.312 249.698-88.441 405.148-79.133l-70.1 66.071c-41.67 15.062-103.98 27.519-143.8 39.531-22.6 6.809-56.053 18.121-77.963 26.898-14.351 5.762-47.09 11.75-55.984 23.571-3.223 4.269-4.192 9.793-4.867 15.101-2.727 21.262-2.258 67.649-2.215 89.039l.316 20.172-126.594 7.52" fill="#a7a5a6"/><path d="M752.605 775.211c-.625-11.063-1.566-19.18-2.507-27.68-.942-8.492-1.871-17.359-2.34-29.16-.543-13.812-2.047-29.93-2.055-46.473.035-19.41 1.992-39.66 11.274-57.789 8.175-15.8 21.25-27.82 35.437-37.308 14.227-9.492 29.758-16.531 43.711-21.922 68.477-26.418 125.227-46.82 180.785-60.66 55.54-13.828 109.83-21.008 172.74-21 18.05 0 36.81.582 56.53 1.769l26.99 1.614-91.54 86.277-2.28.832c-21.59 7.801-47.84 14.719-73.7 21.25l-70.7 18.48c-22.23 6.7-55.63 18-76.981 26.559-4.34 1.73-9.27 3.219-14.571 4.801-7.906 2.347-16.578 4.859-23.632 7.648-3.516 1.391-6.614 2.852-8.875 4.211-2.278 1.352-3.625 2.641-3.926 3.09-.485.641-1.012 1.672-1.477 3.309s-.82 3.781-1.133 6.242c-.89 6.89-1.472 17.648-1.781 29.308-.316 11.68-.394 24.36-.394 35.653l.058 22.578.16 11.441.153 8.528c.125 6.453-5.008 11.781-11.461 11.91a11.69 11.69 0 0 1-11.906-11.457c0-.063-.305-16.012-.317-20.371l-.058-22.629.402-36.293c.332-12.059.887-23.18 1.961-31.637.371-2.844.836-6.102 1.828-9.633 1-3.519 2.563-7.379 5.297-11.008 4.07-5.293 9.152-8.461 14.516-11.242 8.066-4.09 17.218-7.019 25.746-9.609 8.461-2.551 16.418-4.789 20.714-6.531 22.465-9 55.967-20.321 78.937-27.25 20.43-6.161 46.03-12.278 71.72-18.758 25.66-6.473 51.41-13.313 71.48-20.571l3.97 10.989-8.02-8.508 70.1-66.063 8.02 8.5-.7 11.672c-19.3-1.16-37.59-1.73-55.13-1.73-61.15.012-113.16 6.898-167.1 20.308-53.913 13.422-109.796 33.461-178.011 59.782-12.976 5-27.055 11.468-39.144 19.55-12.129 8.079-22.071 17.711-27.641 28.579-6.598 12.679-8.719 29.312-8.68 47.089-.008 15.114 1.442 30.852 2.035 45.543.446 11.047 1.289 19.098 2.219 27.52.93 8.398 1.949 17.18 2.613 28.93a11.68 11.68 0 0 1-11.007 12.32c-6.442.371-11.961-4.563-12.329-11" class="B"/><g clip-path="url(#E)"><path d="M715.227 789.012c38.91-12.59 155.175-17.653 196.097-15.301" fill="url(#F)"/></g><path d="M711.629 777.891c9.332-3 21.344-5.34 35.332-7.391 41.82-6.078 100.809-9.02 139.879-9.039 9.801 0 18.332.187 25.156.578l-1.34 23.332c-6.133-.351-14.328-.539-23.816-.539-25.266 0-59.781 1.309-91.813 3.918-16.015 1.309-31.425 2.941-44.699 4.879-13.242 1.91-24.457 4.203-31.504 6.5l-7.195-22.238" class="B"/><path d="M1559.49 798.488l-511.81 13.782 51.44 52.039 392.27-6.188c32.54-.5 60.41-23.43 67.17-55.262l.93-4.371" fill="#a7a5a6"/><g clip-path="url(#G)"><path d="M1558.8 802.16c-5.22 32.481 13.15 64.422 44.26 76.051.01 0 .01.008.02.008l44.42 16.082 174.04 63.031 23.29 8.438 14.16 5.121 23.05-2.879 17.9-2.231 26.99-3.383L1558.8 802.16" fill="url(#H)"/></g><path d="M1591.83 789.012l-550.42 23.457 149.7-437.649 369.49-28.699-34.26 431.809 65.49 11.082" class="E"/><path d="M1547.87 358.832l-348.19 27.047L1058 800.07l456.96-19.48c-.27-1.141-.36-2.352-.27-3.578l33.18-418.18" fill="#901928"/><path d="M1591.83 789.012l.49 11.679-550.41 23.457a11.67 11.67 0 0 1-9.86-4.679c-2.31-3.098-2.95-7.117-1.7-10.778l149.7-437.652a11.73 11.73 0 0 1 10.16-7.867l369.49-28.703a11.66 11.66 0 0 1 9.17 3.39 11.68 11.68 0 0 1 3.38 9.18l-33.41 421.16 54.94 9.289c5.91 1 10.08 6.274 9.71 12.25-.37 5.992-5.18 10.692-11.17 10.953l-.49-11.679-1.95 11.527-65.49-11.078c-5.98-1.012-10.18-6.402-9.7-12.449l33.18-418.18-348.19 27.047L1058 800.07l533.33-22.73.5 11.672-1.95 11.527 1.95-11.527" class="B"/><path d="M1977.98 971.879l-416.8-181.43 29.39 7.68 40.58-443.43 295.65 159.86 51.18 457.32" class="E"/><path d="M1641.17 373.41l-38.64 422.301 361.59 157.391-48.26-431.172-274.69-148.52" fill="#b62136"/><path d="M1977.98 971.879l-4.67 10.711-416.8-181.418a11.71 11.71 0 0 1-6.38-14.543c2-5.758 8.1-9.027 14-7.481l16.06 4.192 39.32-429.699a11.66 11.66 0 0 1 6.12-9.243 11.65 11.65 0 0 1 11.07.024l295.65 159.859c3.37 1.821 5.63 5.168 6.06 8.981l51.18 457.316c.46 4.141-1.31 8.223-4.67 10.703a11.67 11.67 0 0 1-11.61 1.309l4.67-10.711-11.62 1.301-50.5-451.25-274.69-148.52-38.96 425.781a11.7 11.7 0 0 1-4.92 8.5c-2.81 1.969-6.36 2.61-9.67 1.75l-29.4-7.679 2.96-11.313 4.66-10.711 416.8 181.422-4.66 10.719-11.62 1.301 11.62-1.301" class="B"/><path d="M1591.83 803l-72.66-11.078 41.43-445.801 70.55 8.578L1591.83 803" class="E"/><path d="M1560.6 346.121l-41.43 445.801L1591.83 803l39.32-448.301-70.55-8.578" fill="#a31d2f"/><path d="M1591.83 802.988l-1.76 11.563-83.55-12.742 43.56-468.739 93.69 11.399-41.39 471.953-12.31-1.871 1.76-11.563-11.64-1.019 38.33-437.028-47.39-5.769-39.3 422.859 61.76 9.41-1.76 11.547-11.64-1.019 11.64 1.019" class="B"/><path d="M2056.36 884.68c-12.26 0-22.23 9.968-22.23 22.23s9.97 22.231 22.23 22.231h47.46c12.26 0 22.24-9.969 22.24-22.231s-9.98-22.23-22.24-22.23h-47.46" class="D"/><path d="M2103.82 940.828h-47.46c-18.7 0-33.91-15.219-33.91-33.918s15.21-33.922 33.91-33.922h47.46c18.7 0 33.92 15.223 33.92 33.922s-15.22 33.918-33.92 33.918zm0-23.379c5.82 0 10.54-4.719 10.54-10.539a10.55 10.55 0 0 0-10.54-10.551h-47.46a10.55 10.55 0 0 0-10.54 10.551c0 5.82 4.72 10.539 10.54 10.539h47.46" class="B"/><path d="M2056.36 837.219c-12.26 0-22.23 9.972-22.23 22.23s9.97 22.242 22.23 22.242h36.91c12.26 0 22.24-9.98 22.24-22.242s-9.98-22.23-22.24-22.23h-36.91" class="D"/><path d="M2093.27 893.371h-36.91c-18.7 0-33.91-15.211-33.91-33.922 0-18.699 15.21-33.91 33.91-33.91h36.91c18.7 0 33.92 15.211 33.92 33.91 0 18.711-15.22 33.922-33.92 33.922zm0-23.371c5.83 0 10.55-4.719 10.55-10.551 0-5.82-4.72-10.539-10.55-10.539h-36.91c-5.82 0-10.54 4.719-10.54 10.539 0 5.832 4.72 10.551 10.54 10.551h36.91" class="B"/><path d="M2061.63 789.77c-12.25 0-22.22 9.968-22.22 22.23s9.97 22.23 22.22 22.23h21.1c12.25 0 22.23-9.968 22.23-22.23s-9.98-22.23-22.23-22.23h-21.1" class="D"/><path d="M2082.73 845.922h-21.09c-18.7 0-33.92-15.223-33.92-33.922s15.22-33.918 33.92-33.918h21.09c18.7 0 33.91 15.219 33.91 33.918s-15.21 33.922-33.91 33.922zm0-23.371c5.82 0 10.54-4.731 10.54-10.551s-4.72-10.551-10.54-10.551h-21.09c-5.83 0-10.55 4.731-10.55 10.551s4.72 10.551 10.55 10.551h21.09" class="B"/><path d="M1086.88 555.57a22.13 22.13 0 0 0-21.93 18.649c-.96 5.851.42 11.73 3.88 16.562 3.47 4.821 8.6 8 14.46 8.957l46.84 7.66a21.7 21.7 0 0 0 3.6.301 22.15 22.15 0 0 0 21.93-18.648c1.97-12.102-6.26-23.551-18.35-25.531l-46.83-7.661a22.31 22.31 0 0 0-3.6-.289h0" class="D"/><path d="M1133.73 619.379c-1.83 0-3.67-.149-5.48-.449l-46.84-7.66c-18.45-3.02-31.01-20.489-28-38.938 2.7-16.492 16.77-28.453 33.46-28.453a33.59 33.59 0 0 1 5.49.453l46.83 7.656a33.72 33.72 0 0 1 22.07 13.672c5.29 7.36 7.39 16.34 5.93 25.281-2.7 16.481-16.77 28.438-33.46 28.438zm0-23.367a10.56 10.56 0 0 0 10.4-8.852c.94-5.738-2.96-11.172-8.71-12.109l-46.83-7.66-1.72-.141a10.56 10.56 0 0 0-10.39 8.852 10.55 10.55 0 0 0 8.7 12.109l46.84 7.66 1.71.141" class="B"/><path d="M1104.94 510.441c-10.94 0-20.16 7.84-21.93 18.649-.95 5.851.42 11.73 3.89 16.558 3.47 4.821 8.61 8 14.47 8.961l36.42 5.961a22.02 22.02 0 0 0 3.6.289c10.94 0 20.16-7.839 21.93-18.648a22.12 22.12 0 0 0-3.89-16.563c-3.47-4.82-8.6-8-14.47-8.957l-36.42-5.961a22.97 22.97 0 0 0-3.6-.289" class="D"/><path d="M1141.39 572.551c-1.83 0-3.67-.153-5.48-.449l-36.43-5.961c-18.46-3.02-31.02-20.493-28-38.942 2.7-16.48 16.77-28.449 33.46-28.449 1.83 0 3.68.148 5.49.449l36.42 5.961c18.46 3.02 31.02 20.488 28 38.942a33.78 33.78 0 0 1-33.46 28.449zm0-23.371a10.56 10.56 0 0 0 10.4-8.848 10.55 10.55 0 0 0-8.71-12.113l-36.42-5.957-1.72-.141c-5.07 0-9.55 3.68-10.39 8.848h0c-.94 5.75 2.95 11.172 8.7 12.113l36.43 5.957 1.71.141" class="B"/><path d="M1123 465.309a22.14 22.14 0 0 0-21.92 18.64c-1.97 12.102 6.26 23.551 18.35 25.531l20.82 3.411c1.21.191 2.41.289 3.6.289 10.94 0 20.16-7.84 21.93-18.641 1.97-12.098-6.26-23.551-18.35-25.539l-20.82-3.398a22.98 22.98 0 0 0-3.61-.293" class="D"/><path d="M1143.85 524.859c-1.83 0-3.68-.148-5.49-.437l-20.81-3.41a33.72 33.72 0 0 1-22.07-13.672 33.69 33.69 0 0 1-5.93-25.27c2.7-16.48 16.77-28.449 33.46-28.449a33.79 33.79 0 0 1 5.49.449l20.81 3.399a33.74 33.74 0 0 1 22.07 13.679c5.28 7.364 7.39 16.332 5.93 25.274-2.7 16.476-16.77 28.437-33.46 28.437zm0-23.371a10.54 10.54 0 0 0 1.69-20.949l-20.82-3.41-1.71-.141c-5.08 0-9.55 3.684-10.4 8.852-.94 5.75 2.96 11.172 8.71 12.109l20.81 3.403 1.72.136" class="B"/><g fill="#fff"><path d="M316.133 1372.46l-67.59-24.9 2.797-71.98-44.567 56.59-67.589-24.9 40.046 59.87-44.566 56.59 69.313-19.59 40.046 59.87 2.793-71.97 69.317-19.58m60.004-289.85l-58.84-41.55 21.328-68.79-57.691 43.12-58.84-41.538 23.183 68.188-57.691 43.12 72.019-.97 23.184 68.19 21.328-68.8 72.02-.97m-42.949 585.35l-71.731-6.56-15.93-70.24-28.398 66.19-71.731-6.56 54.176 47.47-28.402 66.19 61.883-36.85 54.175 47.46-15.929-70.24 61.887-36.86m2250.682-295.5l67.59-24.9-2.8-71.98 44.57 56.59 67.59-24.9-40.05 59.87 44.57 56.59-69.32-19.59-40.04 59.87-2.8-71.97-69.31-19.58"/><path d="M2523.86 1082.61l58.84-41.55-21.33-68.79 57.7 43.12 58.84-41.538-23.19 68.188 57.7 43.12-72.03-.97-23.18 68.19-21.33-68.8-72.02-.97m42.95 585.35l71.73-6.56 15.93-70.24 28.4 66.19 71.73-6.56-54.17 47.47 28.4 66.19-61.89-36.85-54.17 47.46 15.93-70.24-61.89-36.86"/><g transform="scale(10)"><path d="M239.87 76.062l1.634-1.033 1.633 2.405 10.25-6.938 1.365 1.867-10.351 6.98 1.637 2.356-1.644 1.116zm.22-8.285l-1.395-1.594-1.529 1.281c-.423.355-.973.47-1.605.074a2.74 2.74 0 0 1-1.039-1.084c-.328-.582-.265-1.218.239-1.645l6.158-5.209c.448-.379 1.007-.643 1.676-.136.424.321.74.656.888.944.208.405.494 1.181-.076 1.677l-1.642 1.428 1.343 1.6 1.98-1.683c1.096-.932.803-2.68.55-3.14-.586-1.063-1.196-1.985-2.405-2.866s-2.774-.44-3.21-.064l-6.933 5.97c-.943.812-1.042 2.121-.716 3.228.271.923 1.056 1.995 2.057 2.685 1.399.965 2.736.971 3.747.128zm-9.642-22.957l-9.597 10.666 5.262 4.707 1.319-1.419-3.603-3.251 2.778-3.013 2.745 2.513 1.279-1.423-2.79-2.519 2.971-3.307 3.649 3.247 1.217-1.416zm-15.543 5.861l-1.909-1.294 6.354-9.041c.384-.546.327-1.267.138-1.604-.243-.432-.853-.804-1.115-.888-.491-.158-1.099-.046-1.478.493l-1.291 1.834-1.845-1.251 1.633-2.312c.818-1.158 2.637-1.166 4.115-.424.519.261.92.66 1.357 1.018 1.346 1.103 1.218 3.114.509 4.136zm-15.891-13.539c-.911 1.722 2.32 3.555 3.316 1.682l3.621-6.811c1.115-2.098-2.323-3.592-3.27-1.802zm1.851-8.341c.605-1.133 1.747-1.791 3.418-1.384.978.238 1.986.566 3.321 1.851 1.101 1.06 1.082 2.417.459 3.585l-3.962 7.434c-.768 1.441-2.304 1.588-3.548 1.281-1.132-.279-2.168-.842-3-1.755-1.273-1.396-1.128-2.702-.61-3.671zm-13.219-.796c.654.223 1.141.829.913 1.923a7.84 7.84 0 0 1-.753 2.101c-.252.481-1.006 1.047-1.814.774l-1.5-.507 1.789-4.756zm1.007-7.303l-2.023-.788-4.891 13.383 4.045 1.485c1.354.497 2.927-.158 3.602-1.061.833-1.115 1.207-2.441 1.492-3.69.283-1.238-.201-2.225-.889-2.866l4.755-4.294-2.337-.855-4.383 4.121-1.161-.46zm-15.9 2.902c.678.134 1.239.674 1.154 1.788a7.84 7.84 0 0 1-.474 2.181c-.188.509-.861 1.166-1.698 1.002l-1.737-.339 1.158-4.948zm-.132-7.402l-2.108-.519-3.117 13.904 4.419.938c1.411.3 2.882-.536 3.435-1.519.682-1.213.88-2.576 1.001-3.852.175-1.852-1.201-2.985-2.363-3.247l-2.397-.541zm-30.109-3.028l-.208 14.286 1.828.005 5.01-9.524-.167 9.65 2.058.028.216-14.364-1.829-.019-5.02 9.797.149-9.853zm-14.11 12.3c.234 1.934 3.934 1.595 3.683-.511l-.913-7.66c-.281-2.36-3.958-1.624-3.714.387zm-3.239-7.906c-.15-1.276.412-2.468 2.017-3.087.939-.362 1.954-.669 3.783-.375 1.509.242 2.268 1.367 2.423 2.682l.989 8.366c.192 1.621-.986 2.619-2.183 3.076-1.089.416-2.261.545-3.465.271-1.842-.42-2.468-1.575-2.596-2.666zm-8.32 13.306l2.244-.48-3.327-13.973-2.244.573zm-14.205 4.488l-.588-1.841 2.739-.975-4.132-11.667 2.151-.851 4.147 11.776 2.692-.99.665 1.872z" vector-effect="non-scaling-stroke" class="C"/><g transform="scale(.1)"><path d="M872.144 299.273l-19.906-24.53-19.613 10.545 94.271 112.83 23.831-11.599-30.791-144.254-20.246 10.123 7.068 29.872zm39.63 4.188l14.911 63.023-40.553-49.973zm-98.225 97.631l-17.583 11.81 10.76 16.796c2.978 4.648 3.429 10.245-1.312 16.009-2.968 3.609-6 6.456-12.072 8.923-6.192 2.515-12.421 1.081-16.009-4.461l-43.827-67.708c-3.19-4.928-5.098-10.802.787-16.796 3.729-3.798 7.45-6.508 10.497-7.611 4.28-1.549 12.346-3.395 16.533 2.887l12.072 18.108 17.583-11.285-14.172-21.782c-7.847-12.062-25.562-11.376-30.442-9.448-11.287 4.459-21.21 9.337-31.492 20.207s-7.893 26.952-4.724 31.755l50.388 76.369c6.855 10.39 19.712 13.036 31.11 11.213 9.496-1.519 21.129-7.935 29.25-16.987 11.351-12.653 13.114-25.9 6.036-37.003z" vector-effect="non-scaling-stroke" class="C"/></g><path d="M65.289 58.853l-7.463-8.759c-.341-.401-.996-2.234.154-3.909.473-.688 1.108-1.207 1.8-1.743 1.122-.867 3.131-1.11 4.41.347l7.421 8.45-1.696 1.604-7.093-8.18c-.53-.611-1.318-.759-1.92-.494-.33.146-.831.667-1.107 1.03-.469.617-.272 1.403.224 1.974l7.028 8.076zm-9.766 7.321c.833-.96 1.232-2.299.091-3.32l-4.588-4.105c-.539-.482-1.876-1.048-2.943.106l-1.298 1.404 7.848 6.942zm-.966 3.939L43.781 60.62l3.26-3.516c1.453-1.567 3.561-1.481 4.965-.257l4.965 4.331c1.647 1.437 2.13 3.648.453 5.599zm-20.142 3.482l11.88 8.045 3.941-5.857-1.586-1.112-2.726 4.015-3.365-2.339 2.113-3.064-1.585-1.072-2.113 3.109-3.682-2.49 2.717-4.06-1.57-1.011z" vector-effect="non-scaling-stroke" class="C"/></g><g transform="matrix(7.5 0 0 -7.5 0 2900.0001)"><path d="M348.921 103.143l4.462 8.68c.18.351.059.654-.213.771l-1.585.683c-.859.37-1.28-1.166-2.243-.39l-11.898 9.582 14.068-4.096c1.224-.356.476-1.86 1.56-2.463l1.317-.731c.389-.216.692-.05.902.366l1.999 3.95c.177.349.394.787-.122 1.073l-1.365.756c-.917.508-1.164-.681-2.609-.268l-27.917 7.973c-2.628.75-5.592.113-6.949-.902s-2.43-2.336-2.999-4.023-.434-3.134.951-4.511 3.49-.496 4.096.902.081 2.139-.634 2.95-.531 1.72.073 2.072 1.178.073 1.512-.195l23.723-19.067c1.719-1.381.319-1.84 1.78-2.584l1.243-.634c.328-.167.681-.219.848.106z" vector-effect="non-scaling-stroke" class="C"/><path d="M309.44 104.28l5.544 7.929c.147.255.434.228.763.114l1.544-1.114c.338-.314.295-.553.321-.805l-.058-.714c-.106-.262.036-.456.151-.657l17.177-12.127c.817-.529 1.589-.656 2.024-.138.43.513-.325 1.394-.481 1.95-.321 1.146.002 1.96.991 2.372.852.356 1.909.09 2.757-.276 1.602-.693 3.308-1.815 3.95-3.438.376-.95.377-2.294-.311-3.049-.825-.906-2.383-.78-3.607-.714-1.424.077-2.813.655-4.084 1.277l4.511-3.334c.492-.581.41-.608.243-.843l-4.248-5.976c-.322-.212-.64-.267-.955-.15l-1.575 1.215.063.963c-.018.314-.163.695-.387.851l-20.399 14.355c-.731.355-1.183.399-1.432.217-.311-.068-.47-.304-1.197.091l-1.303.953c-.181.116-.234.396-.002 1.048z" vector-effect="non-scaling-stroke"/><path d="M319.292 71.768c-1.491 1.035-15.854 14.582-17.456 16.353s.207 4.163 1.926 2.804 15.486-13.833 17.57-16.523-.549-3.67-2.04-2.635zm6.466 8.244c-1.649 4.079-4.45 7.313-7.851 10.148-2.724 2.27-5.734 4.483-9.584 5.192-8.657 1.594-13.741-4.627-10.61-13.043 1.109-2.979 5.118-7.588 7.848-9.955 3.315-2.873 5.619-4.097 9.722-5.182 7.483-1.978 13.444 5.493 10.475 12.84z" vector-effect="non-scaling-stroke" class="C"/><path d="M2259.469 2525.348c21.888-11.048 44.131-14.097 69.047 7.074 1.236 1.05 3.148.821 4.429-.309l12.227-10.783c2.464-2.173 1.905-4.679.71-6.108l-28.265-33.805 10.795-9.232c1.925-1.647 1.638-3.666.426-5.113l-10.937-13.067c-2.107-2.517-4.276-1.85-5.966-.426l-9.943 8.38-120.731-148.997c-9.549-11.785 4.611-19.141-3.125-28.549l-5.255-6.392c-1.198-1.457-2.638-1.086-3.977 0l-44.675 36.234c-3.067 3.717-4.301 18.182 4.194 28.819l125.135 156.667-7.244 6.534c-2.147 1.936-.828 3.027 0 3.977z" transform="matrix(.133333 0 0 -.133333 0 386.66667)" vector-effect="non-scaling-stroke" class="C"/><path d="M294.52 45.135l-2.645 6.992c-.511 1.35-2.691-.237-2.713-1.244l-.105-4.645c-.06-2.671-2.502-3.186-2.861-.1-.933 8.025.69 17.157-5.102 23.291-4.228 4.478-8.283 3.138-10.026-1.109-.251-.611-.621-.763-.932-.311l-.693.817c-1.164-.612-2.369-1.082-1.871-2.256l2.874-6.769c.521-1.228 2.724.459 2.689 1.258l-.16 3.711c-.128 2.962 2.936 4.535 3.505.133 1.039-8.032-.77-14.864 4.57-22.271 2.626-3.643 7.965-3.559 9.893.665.613 1.343 1.261.96 1.671.116.592.285 2.272.753 1.907 1.72z" vector-effect="non-scaling-stroke" class="C"/><path d="M268.755 30.13c-.384-.072-.83.025-1.009.419l-.937 2.063c.597.596 1.001 1.256.456 2.224l-10.742 21.776c-.363.405-.668.757-1.122.677-.56-.099-.945.354-1.205.737l-.585 1.443c-.166.41.048.687.329.824l8.513 4.149c.308.15.687.002.871-.322l.648-1.146c.52-.919.177-1.32-.205-1.645-.271-.231-.282-.442-.06-.892l12.726-25.755c.235-.433.015-.767-.28-.912zm1.681-1.411c.665.987 2.755 1.861 3.926 2.053s2.955.263 3.801-.497 1.22-1.438.652-2.487-2.657-1.773-3.921-2.02-3.316-.49-4.178.395-.945 1.57-.281 2.557z" vector-effect="non-scaling-stroke"/><path d="M239.136 12.93l10.139 3.25c.525.163.708.445.551.972l-.424 1.645c-.346.888-1.572.509-1.752 1.059l-3.992 12.293 3.639 1.272 3.957-12.047c.302-.919-.941-1.068-.601-2.049l.601-1.731c.13-.375.426-.558.848-.424l10.422 3.321c.371.118.558.375.424.883l-.495 1.872c-.17.642-2.153.107-2.455 1.024l-9.415 28.616c-.628 1.908 1.393 1.806.83 3.728l-.336 1.148c-.117.401-.545.442-.919.318l-10.422-3.462c-.323-.107-.533-.305-.389-.777l.389-1.272c.531-1.737 1.432-.079 2.084-2.084l4.663-14.343-3.639-1.307-4.911 14.626c-.566 1.685.994 1.294.424 2.862l-.424 1.166c-.17.467-.572.485-1.06.318l-10.033-3.427c-.444-.152-.445-.427-.353-.777l.416-1.59c.385-1.472 1.904.044 2.508-1.802l9.123-27.874c.655-2.162-1.574-1.213-.742-3.957l.459-1.06c.242-.446.551-.486.883-.389z" vector-effect="non-scaling-stroke" class="C"/><path d="M1425.624 2799.84l62.187-2.566c3.053-1.126 3.371-3.117 3.727-5.097l-.608-20.428c8.515 11.083 19.173 19.506 31.293 22.86s20.733 4.429 32.499.423 19.05-14.968 22.377-23.256 3.237-14.676 3.115-17.432l-7.936-179.993c.189-1.694 1.699-6.584 3.897-7.896s4.205-4.931 4.134-6.66l-.539-13.14c-.064-1.552-1.938-3.883-4.183-4.317s-52.517 1.862-52.517 1.862c-7.205 1.698-10.546 10.694-11.364 17.799l6.95 186.368c-.482 6.15-3.455 10.418-11.516 10.84-8.345.744-12.574-3.455-17.104-7.292l-7.759-172.156c1.136-3.644-.272-8.545 5.162-10.065 2.276-1.812 4.712-3.515 4.59-6.983l-.11-10.8c-1.113-5.459-3.688-5.879-6.292-6.2l-72.252 3.177c-1.406.753-3.258 1.003-2.517 4.175l.475 12.251c.782 4.267 3.23 4.788 5.097 6.613 4.161.525 4.893 5.741 5.729 10.814l7.146 184.775c.529 4.293-1.21 7.236-4.079 9.506-4.772 1.16-4.985 4.783-5.424 8.284l.53 9.855c.832 3.122 2.688 4.526 5.291 4.679z" transform="matrix(.133333 0 0 -.133333 0 386.66667)" vector-effect="non-scaling-stroke"/><path d="M137.841 257.517s.461-.279.638-.457.323-.292.417-.585.211-.728 0-1.126-.484-.591-1.306-.882-2.76-.568-3.642-.316-1.142.751-1.477 1.109-.596.918-.596.918-1.638-2.192-2.692-2.714-1.997-.807-3.212-.421-2.273 1.132-3.24 2.993-1.394 6.204-1.083 8.101.554 1.943 1.487 3.014 3.134 2.189 4.267 2.897l2.484 1.422-.504 3.967c-.06.468-.593.931-1.047 1.001s-.934-.202-1.233-.524-.336-.684-.416-1.231.073-2.013.073-2.013-.093-.529-.245-.738c-.303-.417-.632-.634-1.247-.916s-1.705-.684-2.45-.564-1.274.248-1.72 1.045-.47 2.31.012 3.472 1.4 2.106 2.876 2.889 4.12 1.249 5.84 1.111 3.131-.639 4.142-1.501 1.56-2.07 1.731-3.12l2.145-16.832zm-6.399 1.276l-1.238 10.439-1.649-1.429c-.193-.257-.489-.679-.577-1.115-.078-.39-.033-1.343-.033-1.343l.485-5s.19-1.688.594-2.198.715-.887 1.43-.772 1.048.915.988 1.416zm-26.062 14.08c-.863-1.293-1.134-3.019-1.346-4.569-.199-1.659-.271-2.795.253-5.255s2.233-7.192 3.571-9.157 2.048-2.398 3.256-3.013 2.5-.846 3.626-.719 1.975.422 2.833 1.265 1.513 2.47 1.74 3.727c.135 1.351-.089 4.887-1.401 4.639l-1.467-.45c-.739-.852.047-1.731.168-2.579.098-.779.442-2.298-.059-2.98a1.95 1.95 0 0 0-1.987-.667c-.516.168-.671.945-.671.945l-4.866 16.785s-.4 1.133.022 1.609 1.427.847 1.817-.133.232-1.509.378-2.106.1-.852.518-1.471 1.052-1.099 1.648-1.229 1.12-.027 1.57.338.697.912.758 1.705-.152 1.847-.755 2.808-1.882 2.105-2.949 2.553c-3.147.948-5.794-.753-6.657-2.046zm-16.005-5.04c-.229-.183-.392-.484-.256-.778l.712-1.543c.631.047 1.203-.047 1.486-.83l7.102-16.769c.159-.375.103-.75-.166-.969-.33-.27-.331-.737-.172-1.046l.533-1.039c.151-.295.413-.309.629-.217l6.527 2.801c.236.101.338.389.244.652l-.333.929c-.267.746-.663.747-1.034.689-.264-.041-.389.056-.536.403l-8.389 19.845c-.13.346-.428.384-.655.288zm.022 1.646c.886-.106 2.407.653 3.089 1.224s1.597 1.549 1.58 2.402-.219 1.397-1.093 1.589-2.309-.64-3.068-1.236-1.903-1.643-1.823-2.566.429-1.306 1.315-1.412zm-2.39-31.317l6.333 3.542c.193.108.273.335.142.561l-.715 1.236c-.174.3-.387.296-.577.3l-.537.011c-.212.004-.393.011-.479.162l-7.76 13.728c-.333.649-.37 1.235.049 1.52s1.016-.347 1.419-.505c.831-.326 1.462-.145 1.845.561.329.609.211 1.418.001 2.078-.397 1.248-1.106 2.605-2.269 3.206-.681.352-1.683.453-2.299-.003-.738-.548-.761-1.72-.803-2.638-.05-1.069.278-2.149.647-3.143l-2.149 3.616c-.397.411-.423.352-.611.245l-4.779-2.722c-.251-.143-.317-.487-.184-.701l.788-1.267.723-.025a.8.8 0 0 0 .606-.353l9.181-16.3c.299-.531.169-.884.055-1.085-.118-.207-.336-.365-.022-.9l.614-1.044c.082-.139.253-.368.782-.08zm-17.17 3.639l4.954-6.414s.553-.637 1.02-.837 1.206-.361 1.717-.209.88.548 1.127.943.288.83.32 1.288a4.13 4.13 0 0 1-.152 1.422c-.14.495-.454 1.06-.711 1.498s-.6.857-.802 1.133-.143.713.049.858l1.425 1.125s.515.211.789-.056h0c.91-.627 2.124-3.39 2.053-5.048-.084-1.957-.301-2.706-1.032-3.735-.749-1.053-1.803-1.94-3.082-2.435s-2.688-.61-4.29-.299-3.27 1.131-4.94 2.404-3.511 3.583-4.694 5.336-2.051 3.43-2.504 4.983-.6 2.828-.424 4.106.464 2.323 1.331 3.364 2.169 2.029 3.826 2.388 3.706-.281 5.073-1.211 2.638-2.186 3.518-3.1 1.746-1.724 1.85-2.264c.037-.194-.058-.371-.058-.371l-6.363-4.869zm-1.246 1.93l1.67 1.278c.111.075.057.221.008.365l-3.967 5.065c-.365.41-.867.455-1.266.388s-.598-.314-.738-.651-.208-.778 0-1.063l3.842-5.248c.17-.21.316-.216.451-.134z" vector-effect="non-scaling-stroke" transform="matrix(1.333333 0 0 -1.333333 0 386.66667)"/><path d="M71.714 110.462l6.518-7.563h0c.213-.248.125-.404.015-.517l-1.383-1.421c-.34-.349-.817-.016-1.363-.043-.311-.015-.677.005-.912-.199l-17.4-15.072c-.385-.334-.267-1.231.724-2.451.323-.397.945-.701 1.606-.134L78.22 99.084c.699.352 1.106.862 2.802.674l4.709-5.419c.156-.244.168-.551.046-.916l-1.376-1.316c-.43-.135-.886-.234-1.558-.047-.084.001-.165.004-.425-.094L65.221 77.14c-.577-.497-.906-1.333-.108-2.332.2-.25.388-.492.689-.721.33-.251.957-.502 1.567.024l18.645 16.067c.958.581 2.105 1.384 2.903.475l4.558-5.184c.287-.326.42-.726.097-1.019l-1.36-1.236c-.404-.368-.893-.595-1.958-.284L71.028 66.588c-1.899-1.317-4.172-1.522-5.876-.151s-1.953 2.387-2.359 3.968c-.337 1.491-.293 2.981-.233 4.472-.922-.201-1.837-.28-2.595-.253-1.099.039-1.989.357-3.111 1.323-1.895 1.633-2.442 3.894-1.942 7.808l-1.877-1.699c-.311-.361-.631-.277-.953-.071l-5.444 6.268c-.07.184-.213.703.045.885l1.173 1.068c.343.388.762.19 1.17.069.331-.038.617-.201 1.068.087l18.934 16.368c.264.228.413.545.49.904.146.673-.336 1.064.489 1.766l1.058.9c.22.222.489.342.646.159zM55.22 123.588l2.791 2.231c.418.353.812.456 1.284.285l1.173-.788c.315-.137.624-.192.912.01l1.353.864c.441.282.38.522.26.742l-3.197 5.835c-.296.54-.978.192-1.318-.115l-1.262-1.142c-.513-.465.204-1.292-.775-2.057L32.245 110.51c-.308-.198-.673-.249-1.233-.066-.7.434-.907.693-1.716.335-1.111-.736-2.047-.986-1.687-1.741l4.889-8.817c.241-.434.63-.602 1.671-.218l30.784 11.345.911.231c.47.107.747.155 1.28.058.586-.107 1.2-.447 1.348-.34.875.379 1.393.631 1.895 1.294.207.337.153.539-.049.998h0l-5.124 9.348c-.254.463-.646.343-.889.2l-1.396-.817c-.179-.105-.244-.305-.273-.603l-.101-1.052c-.073-.762-.203-.819-.639-.983l-3.721-1.398zm-2.375-1.783l2.587-4.586-17.496-6.757z" vector-effect="non-scaling-stroke"/></g></g></g></svg>